<svg id="右半分" xmlns="http://www.w3.org/2000/svg" viewBox="0 0 229.66 537.5"><defs><style>.cls-1{fill:#636463;}.cls-2{fill:#debf86;}.cls-3{fill:#585757;}.cls-4{fill:#195098;}.cls-5{fill:#434973;}.cls-6{fill:#f4e4d5;}.cls-7{fill:#fff;}.cls-8{fill:#717171;}.cls-9{fill:#b4b4b5;}.cls-10{fill:#3d3a39;}.cls-11{fill:#221714;}.cls-12{fill:#983542;}.cls-13{fill:#2c2e41;}.cls-14{fill:#888988;}.cls-15{fill:#c7476c;}.cls-16{fill:#d2a858;}.cls-17{fill:#9e9e9f;}.cls-18{fill:#c8c9ca;}</style></defs><title>avatar</title><ellipse class="cls-1" cx="106.56" cy="513.73" rx="106.56" ry="23.77"/><path class="cls-2" d="M268.54,307.65a.47.47,0,0,1-.2.72l-.13.06A.61.61,0,0,0,268.54,307.65Z" transform="translate(-38.97 -11)"/><path class="cls-2" d="M268.54,307.65a.61.61,0,0,1-.33.77,29.87,29.87,0,0,1-6.1,1.82c1.81-1,3.72-1.94,5.68-2.83l.12,0a.6.6,0,0,1,.62.26S268.54,307.63,268.54,307.65Z" transform="translate(-38.97 -11)"/><path class="cls-2" d="M267.92,307.35a.42.42,0,0,1,.61.28.6.6,0,0,0-.62-.26Z" transform="translate(-38.97 -11)"/><path class="cls-2" d="M268.21,308.42c-4.86,2.22-9.35,4.52-12.93,8.6a.38.38,0,0,0,.08-.17,7,7,0,0,0,.23-1.78,29.43,29.43,0,0,1,6.52-4.84A29.87,29.87,0,0,0,268.21,308.42Z" transform="translate(-38.97 -11)"/><path class="cls-2" d="M267.79,307.4c-2,.89-3.87,1.8-5.68,2.83a35.49,35.49,0,0,1-7.83.5,2.53,2.53,0,0,0-1.51-1.18.55.55,0,0,0-.33,0h0l-.14.06a.49.49,0,0,1,.34-.1A32,32,0,0,0,267.79,307.4Z" transform="translate(-38.97 -11)"/><path class="cls-2" d="M262.11,310.24a29.43,29.43,0,0,0-6.52,4.84,7.94,7.94,0,0,0-1.31-4.35A35.49,35.49,0,0,0,262.11,310.24Z" transform="translate(-38.97 -11)"/><path class="cls-2" d="M254.94,312a7.92,7.92,0,0,1,.65,3.12c-.39.38-.75.77-1.1,1.18l-.14.06a6.42,6.42,0,0,0-.25-3.5c-.23-.65-.71-1.84-1.44-2.15l.08,0,1.56.09A7.87,7.87,0,0,1,254.94,312Z" transform="translate(-38.97 -11)"/><path class="cls-2" d="M255.59,315.08a7,7,0,0,1-.23,1.78.38.38,0,0,1-.08.17.34.34,0,0,1-.13.14l-.1,0-.44-1-.12.06C254.84,315.85,255.2,315.45,255.59,315.08Z" transform="translate(-38.97 -11)"/><path class="cls-2" d="M255,317.21l.1,0a.34.34,0,0,1-.23.1l.11,0Z" transform="translate(-38.97 -11)"/><path class="cls-3" d="M254.61,316.2l.44,1h0a.6.6,0,0,1-.47-.06l-.09-.07a.62.62,0,0,1-.18-.42.55.55,0,0,1,.14-.36s0,0,.06-.06Z" transform="translate(-38.97 -11)"/><path class="cls-3" d="M255,317.22l-.11,0a.42.42,0,0,1-.36-.1A.6.6,0,0,0,255,317.22Z" transform="translate(-38.97 -11)"/><path class="cls-3" d="M254.92,317.26l-16.1,7A12.48,12.48,0,0,1,239,323l15.36-6.73a1.87,1.87,0,0,1,0,.24.23.23,0,0,0,0,.12.46.46,0,0,0,.18.42l.09.07A.42.42,0,0,0,254.92,317.26Z" transform="translate(-38.97 -11)"/><path class="cls-3" d="M254.49,316.26s0,0-.06.06a.55.55,0,0,0-.14.36.23.23,0,0,1,0-.12,1.87,1.87,0,0,0,0-.24Z" transform="translate(-38.97 -11)"/><path class="cls-3" d="M254.09,312.82a6.42,6.42,0,0,1,.25,3.5L239,323a6.55,6.55,0,0,1,.15-.78c.26-1.2,1.36-2.93,1.21-4.24a4.23,4.23,0,0,0-1.09-2.21l13.38-5.15h0C253.38,311,253.86,312.17,254.09,312.82Z" transform="translate(-38.97 -11)"/><path class="cls-3" d="M254.29,316.68a.62.62,0,0,0,.18.42A.46.46,0,0,1,254.29,316.68Z" transform="translate(-38.97 -11)"/><path class="cls-2" d="M252.77,309.55a2.53,2.53,0,0,1,1.51,1.18l-1.56-.09.1,0-.39-1A.55.55,0,0,1,252.77,309.55Z" transform="translate(-38.97 -11)"/><path class="cls-3" d="M252.44,309.59l.39,1-.1,0h-.1a.56.56,0,0,1-.53-.58.4.4,0,0,1,0-.12A.55.55,0,0,1,252.44,309.59Z" transform="translate(-38.97 -11)"/><path class="cls-3" d="M252.72,310.65l-.08,0h0l-.15,0a.47.47,0,0,1-.39-.57.56.56,0,0,0,.53.58Z" transform="translate(-38.97 -11)"/><path class="cls-3" d="M252.63,310.67l-13.38,5.15-.77-.88,13.8-5.31a.43.43,0,0,0-.17.3.4.4,0,0,0,0,.12.47.47,0,0,0,.39.57Z" transform="translate(-38.97 -11)"/><path class="cls-3" d="M252.42,309.58h0a.55.55,0,0,0-.32.34.43.43,0,0,1,.17-.3Z" transform="translate(-38.97 -11)"/><path class="cls-4" d="M248.95,356.73a1.17,1.17,0,0,0,0-.52A.83.83,0,0,1,248.95,356.73Z" transform="translate(-38.97 -11)"/><path class="cls-5" d="M248.95,356.21a1.17,1.17,0,0,1,0,.52l-.07.13a.92.92,0,0,1-.09.13,1,1,0,0,0-.1.13l0,0a.65.65,0,0,1-.67.07l-1.09-.47.73-.92a.64.64,0,0,1,.67-.26h0l.12.06a1.41,1.41,0,0,1,.25.15.72.72,0,0,1,.14.18l0,.06A.7.7,0,0,1,248.95,356.21Z" transform="translate(-38.97 -11)"/><path class="cls-4" d="M248.95,356.21a.7.7,0,0,0-.09-.21A.5.5,0,0,1,248.95,356.21Z" transform="translate(-38.97 -11)"/><path class="cls-4" d="M248.8,357a.92.92,0,0,0,.09-.13.51.51,0,0,1-.19.26A1,1,0,0,1,248.8,357Z" transform="translate(-38.97 -11)"/><path class="cls-4" d="M248.83,355.94a.72.72,0,0,0-.14-.18A.72.72,0,0,1,248.83,355.94Z" transform="translate(-38.97 -11)"/><path class="cls-4" d="M248.69,355.77a1.41,1.41,0,0,0-.25-.15l-.12-.06A.85.85,0,0,1,248.69,355.77Z" transform="translate(-38.97 -11)"/><path class="cls-5" d="M248,357.21a.65.65,0,0,0,.67-.07,124.82,124.82,0,0,1-14.92,14.95c4.78-5.12,9.17-10.41,13.16-15.35Z" transform="translate(-38.97 -11)"/><path class="cls-5" d="M248.3,355.56a.64.64,0,0,0-.67.26l-.73.92A120.2,120.2,0,0,1,214,335.14l.28-.3,1.19-.56A117,117,0,0,0,248.3,355.56Z" transform="translate(-38.97 -11)"/><path class="cls-3" d="M244,131.69a.84.84,0,0,1,.42,1.54l-.36.21-.06-.1c-.13-.52-.28-1-.41-1.54v-.1Z" transform="translate(-38.97 -11)"/><path class="cls-3" d="M244,133.34l.06.1-5.54,3.24c-.24.14-7.38,4.52-5.21,5.16a.84.84,0,0,1,.2,1.51q-.25.17-.5.3l-.13-.22-.2-1.51a8.08,8.08,0,0,1-1.4.73c-2.56-2.34,5.37-7.07,9.73-9.46A14,14,0,0,0,244,133.34Z" transform="translate(-38.97 -11)"/><path class="cls-3" d="M243.57,131.8c.13.52.28,1,.41,1.54a14,14,0,0,1-3-.15C242.3,132.47,243.28,132,243.57,131.8Z" transform="translate(-38.97 -11)"/><path class="cls-3" d="M243.57,131.7v.1c-.29.17-1.27.67-2.58,1.39-5.05-.85-8.76-4.52-11.61-9.13h0a.76.76,0,0,0-.19-.3,0,0,0,0,0,0,0c-3.29-5.4-5.45-12-7.25-16.89-5.57-15-9-30.79-15.93-45.24-38.86-80.76-91.59-39.33-101.77-29.68C93.17,42.4,85.28,55.23,79.79,69.37c-5.23,13.5-8.69,27.62-14,41.07-1.6,4-3.46,9.1-6.08,13.42-2.8,4.64-6.46,8.46-11.63,9.31-1.32-.73-2.31-1.22-2.56-1.38v-.1c10.28.2,14.69-12,17.95-19.91,2.7-6.54,4.9-13.28,7-20,4.2-13.18,8.21-26.57,15.06-38.67C96.5,33.76,149.5-28,200.19,47.67c8.42,12.55,13,27.07,17.5,41.35,2.34,7.36,4.68,14.72,7.57,21.88C228.51,119,233,131.91,243.57,131.7Z" transform="translate(-38.97 -11)"/><path class="cls-6" d="M240.35,318c.14,1.3-.95,3-1.21,4.24a6.55,6.55,0,0,0-.15.78l-1.9.83c0-.1,0-.2,0-.31.43-2.72,1.68-3.92.57-6.5-1.85-4.32-6-8.33-8.56-12.51.4-.42.78-.86,1.15-1.3a85.83,85.83,0,0,0,7.7,11.1c.15.2.32.39.5.58l-.4.15.4,1,.77-.3A4.23,4.23,0,0,1,240.35,318Z" transform="translate(-38.97 -11)"/><path class="cls-6" d="M239.25,315.82l-.77.3-.4-1,.4-.15Z" transform="translate(-38.97 -11)"/><path class="cls-6" d="M238.9,326.57a12.79,12.79,0,0,1,.13,1.29,9.66,9.66,0,0,1-2.29,3.66,16.76,16.76,0,0,0-.46-2.21c.92-1.72.55-3.17.77-5.18l.35.79,1.41-.62A11.94,11.94,0,0,0,238.9,326.57Z" transform="translate(-38.97 -11)"/><path class="cls-6" d="M237.08,323.87,239,323a12.48,12.48,0,0,0-.17,1.27l-1.41.62-.35-.79Z" transform="translate(-38.97 -11)"/><path class="cls-6" d="M237.7,317.06c1.1,2.58-.14,3.77-.57,6.5,0,.11,0,.21,0,.31l-.12.06.09.21c-.22,2,.14,3.46-.77,5.18-1.16-4.27-3.75-8.77-4.92-11.74-.39-1-2-.55-1.59.44.07.18.14.36.22.54l-11.6,5.22a.77.77,0,0,0-.14-.43,41.88,41.88,0,0,0-6-7.54c6-2.74,12.34-6.38,16.92-11.25C231.68,308.74,235.85,312.74,237.7,317.06Z" transform="translate(-38.97 -11)"/><path class="cls-3" d="M237,323.93l.12-.06,0,.26Z" transform="translate(-38.97 -11)"/><path class="cls-6" d="M236.74,331.52a8.09,8.09,0,0,1-.73,5.18c-4,7-11.74-2.61-14.86-5.08h0l1.64-.78h0c2.23,2,4.29,4.93,7,6,4.48,1.81,5.65-1.92,5-5.46a.2.2,0,0,0,0-.08l.61-.13a.78.78,0,0,0,1.36.44Z" transform="translate(-38.97 -11)"/><path class="cls-6" d="M236.74,331.52l-.08.1a.78.78,0,0,1-1.36-.44.84.84,0,0,1,.19-.73,7,7,0,0,0,.78-1.14A16.76,16.76,0,0,1,236.74,331.52Z" transform="translate(-38.97 -11)"/><path class="cls-6" d="M236.28,329.32a7,7,0,0,1-.78,1.14.84.84,0,0,0-.19.73l-.61.13a37.86,37.86,0,0,0-2.46-7.46c-.61-1.43-1.24-2.86-1.83-4.28l.38-.17-.45-1-.34.15c-.08-.18-.15-.36-.22-.54-.4-1,1.2-1.41,1.59-.44C232.53,320.55,235.12,325.05,236.28,329.32Z" transform="translate(-38.97 -11)"/><path class="cls-6" d="M234.72,331.39c.69,3.54-.47,7.27-5,5.46-2.69-1.09-4.75-4.06-7-6L233,326l-.79-2.15h0a37.86,37.86,0,0,1,2.46,7.46A.2.2,0,0,1,234.72,331.39Z" transform="translate(-38.97 -11)"/><path class="cls-5" d="M246.9,356.74c-4,4.94-8.38,10.24-13.16,15.35-5.56,4.91-11.27,9.68-16.43,15-8.35,6.15-17.57,10.62-27.65,11.61-3.46.34-7.41-.41-11.55-1.65-10.93-3.28-23.27-10-31.92-9.2a126.5,126.5,0,0,0-15,2s0,0,0,0a.61.61,0,0,0-.19.06c-5.93,1.38-4.54,2.83-10.74,5.05-15.29,5.46-29,1.63-43.62-5.33-15-7.1-25.29-20.16-35.52-32.87,14-6.09,27-15.44,37.88-26.15a81.68,81.68,0,0,0,13.37-16.77c5.15-8.79,11.24-17.15,15.44-26.47a1.08,1.08,0,0,0,.07-.25.65.65,0,0,0,.42-.73c-.11-1-.23-2-.36-2.92a129.19,129.19,0,0,0-2.87-15c1.48.31,2.74.55,3.51.76,11.54,3.22,22.22,8.47,34.38,6.55,11.22,1.72,21.39-1.18,32-4.82,3.14-1.08,6.28-2.17,9.34-3.3-1.58,6.19-2.05,12.44-2.76,18.78a1,1,0,0,0,0,.46,5.48,5.48,0,0,0,0,.64s6.07,9.66,10.81,18a.87.87,0,0,0,.58,1c1.14,2,2.18,3.93,3,5.56a72.58,72.58,0,0,0,12.89,18.09c1.68,1.72,3.42,3.41,5.21,5A120.2,120.2,0,0,0,246.9,356.74Zm-69.83-69.27c1-.41-21,6.62-34.19,6.62A72.36,72.36,0,0,1,112,287.47c-1-.44.25.82,1.24,1.21l6.49,2.1C133.86,296.54,142.88,301.81,177.07,287.47Zm-30.88-7.17a2.76,2.76,0,1,0-2.76,2.76A2.77,2.77,0,0,0,146.19,280.3Zm0,6.62a2.76,2.76,0,1,0-2.76,2.76A2.77,2.77,0,0,0,146.19,286.92Z" transform="translate(-38.97 -11)"/><path class="cls-7" d="M233.21,287.52a.85.85,0,0,1,.17,1.3c-1.46,1.82-2.91,4-4.46,6.1-.57-1-.94-1.37-.67-.3a.79.79,0,0,0-1.2-.46c1.33-1.44,4.09-3.9,4.1-5.4,0-1.1-2.27-1.71-3.41-2.23-3.12-1.41-6.36-2.57-9.4-4.17-6-3.15-8.29-7.71-11.22-13.67a137.25,137.25,0,0,1-12.46-38.36c-2.26-13.67-2.82-27.74-3.69-41.79-.24-3.86.71-11.5-2.24-14.36-2.39-2.33-6.3-3.93-9.09-5.85-6.55-4.52-13.35-10.78-20.58-10.76-.31-.61-.63-1.19-1-1.78a4.39,4.39,0,0,1,1,.19,63.44,63.44,0,0,1,18.42,8.87c3,2,5.88,4.11,8.92,6,1.6,1,4.36,1.89,5.25,3.55.55,1,.33,4.65.41,5.85.17,2.46.32,4.93.47,7.39.23,3.69.45,7.4.68,11.11.42,6.79.86,13.6,1.58,20.38a143,143,0,0,0,8.74,37.47c2.6,6.62,5.77,16.65,11.2,21.47C219.93,282.67,227.39,284,233.21,287.52Z" transform="translate(-38.97 -11)"/><path class="cls-3" d="M232.22,323.87,233,326l-10.22,4.81h0l-.45-.38c-.82-.64-2,.5-1.19,1.16l-5.68,2.67-.9-.85Z" transform="translate(-38.97 -11)"/><path class="cls-3" d="M232.86,143.44l.13.22c-3,1.75-6.2,1.33-9.41.35a9.05,9.05,0,0,0-.95-1.83l.07-.19c2.8,1,5.78,1.75,8.56.66A4,4,0,0,0,232.86,143.44Z" transform="translate(-38.97 -11)"/><path class="cls-3" d="M232.66,141.92l.2,1.51a4,4,0,0,1-1.6-.78A8.08,8.08,0,0,0,232.66,141.92Z" transform="translate(-38.97 -11)"/><path class="cls-5" d="M217.31,387.08c5.16-5.31,10.88-10.08,16.43-15A121.4,121.4,0,0,1,217.31,387.08Z" transform="translate(-38.97 -11)"/><path class="cls-3" d="M232.24,323.86h0l-17.67,9.56c-1.61-1.49-3.19-3-4.69-4.6l20.55-9.25C231,321,231.63,322.43,232.24,323.86Z" transform="translate(-38.97 -11)"/><path class="cls-8" d="M228.92,294.92c1.5,2.58,4.5,9.35,2.33,6.29a.8.8,0,0,1,0,.83c-.31.42-.63.82-1,1.22l-.11-.2a.81.81,0,0,0-1.38,0l-.19-.12a2.56,2.56,0,0,0,.25-.49c.46-1.16-.65-3.52-1.47-5.4Q228.18,296,228.92,294.92Z" transform="translate(-38.97 -11)"/><path class="cls-7" d="M227.74,286.52c1.14.52,3.43,1.13,3.41,2.23,0,1.5-2.77,4-4.1,5.4a.71.71,0,0,0-.34.4s0,0,0,0c-2.71,3.4-5.86,8.74-10.37,9.79-2.35.55-5.11.36-7.51.43s-4.85.18-7.29.22-5.16,0-7.72-.15c-3.76-6.09-8-11.85-11-18.38a2.1,2.1,0,0,0-.24-.42A153.92,153.92,0,0,1,185.76,267q3.82-1.39,7.5-2.82c1.54-.61,4.36-.93,4.62-2.9.38-2.75-5.16-5.83-6.72-7.54-4.63-5.08-4.84-14.13-5.46-20.63-1.14-12-2.77-23.84-3.86-36.11-1.47-16.54-1.83-.6-1.59.44,2.43,10.76,2.65,21.77,3.54,32.73.6,7.36.49,17.55,5.21,23.6a36.75,36.75,0,0,0,4.37,4.32c.74.66,1.47,1.33,2.17,2a4.6,4.6,0,0,1-3.68,2.81,48,48,0,0,1-6.5,2.68c-3,1-6.12,1.9-9,2.93-9.52,3.46-18.86,6.46-28.86,6q.43-24.55.88-49.12.22-12.09.44-24.21c.08-4,.14-8.07.22-12.1.08-4.21-.65-9.36.67-13.38a.32.32,0,0,0,0-.1c7.42,2.64,16.91,5.63,16.78,5.17-2.26-7.58-3.83-16.16-7.48-23.25,7.24,0,14,6.24,20.58,10.76,2.79,1.92,6.7,3.52,9.09,5.85,2.94,2.86,2,10.5,2.24,14.36.87,14.05,1.43,28.13,3.69,41.79a137.25,137.25,0,0,0,12.46,38.36c2.92,6,5.22,10.51,11.22,13.67C221.38,284,224.62,285.11,227.74,286.52Z" transform="translate(-38.97 -11)"/><path class="cls-3" d="M241,133.19c-4.36,2.39-12.29,7.13-9.73,9.46-2.78,1.09-5.76.3-8.56-.66l-.55-.19a.83.83,0,0,0-.94,1.21c.11.15.21.32.31.49.85,1.51.9,3.2,2.06,4.57a8.31,8.31,0,0,0,2.47,1.48,50.78,50.78,0,0,1-19.39-3.14c-.75-.28-1.46.88-.81,1.38s1.08.83,1.63,1.2l-6-.31-.6,0a.84.84,0,0,0-.58,1.42c.77.95,1.54,1.89,2.33,2.82-5.76.5-5.05-3.93-8.71-4.43a3.44,3.44,0,0,0-.61-.06.84.84,0,0,0-.58,1.41,9.21,9.21,0,0,1,.89,3.46L189,149.73a.83.83,0,0,0-1.38.36,7.3,7.3,0,0,0-.24,2.79,19.45,19.45,0,0,0-2.15-1c-.76-.32-1.18.64-.94,1.21a4.55,4.55,0,0,0,.19.5c-2.61-1.56-4-3.69-6.28-6.11a.85.85,0,0,0-1-.13c-1.18.54-1.36,1.85-1.29,3.12l-.21-.06a.86.86,0,0,0-1,.55,10.16,10.16,0,0,0-2.67-.67c-.79-.1-1,.94-.58,1.41a10,10,0,0,0,1.1,1.36,7.62,7.62,0,0,1-4.42-.32l-.21-.07a.78.78,0,0,0-.93.44h0a9.76,9.76,0,0,1-5.74-4.59.84.84,0,0,0-1.43,0,3.51,3.51,0,0,0-.23.78c-.15.85-.23,1.93-.56,2.25-1,1-3.94-1.37-5.24-2.11a.82.82,0,0,0-.4-.12,26.86,26.86,0,0,1,.77-6.67A.8.8,0,0,0,154,142a65.79,65.79,0,0,0,11-6.22c7.45-5,13.94-11.61,17.44-20a47.67,47.67,0,0,0,8.33,12.2c4.47,4.75,16.16,15.31,23.59,11.81a.83.83,0,0,0,0-1.42l-2.11-1.26c3.42.45,6.63.73,10-.77a2.9,2.9,0,0,0,.39-.17c.81-.38.33-1.49-.41-1.54l-.41,0a39,39,0,0,1-6.5-1.11,16.35,16.35,0,0,0,2.88-1,.82.82,0,0,0,0-1.42,25.35,25.35,0,0,1-7.76-6,30.3,30.3,0,0,0,18.07.13l.21-.06a.85.85,0,0,0,.53-1.1C232.23,128.67,235.93,132.34,241,133.19Z" transform="translate(-38.97 -11)"/><path class="cls-6" d="M230.33,318.41l.45,1-.38.17c-.14-.34-.29-.67-.42-1Z" transform="translate(-38.97 -11)"/><path class="cls-3" d="M230,318.56c.13.34.28.67.42,1l-20.55,9.25c-.28-.28-.55-.55-.82-.84l8-3.6a.87.87,0,0,0,1.37-.62Z" transform="translate(-38.97 -11)"/><path class="cls-8" d="M230.18,303.06l.11.2c-.36.44-.75.88-1.15,1.3-.14-.22-.28-.45-.4-.67a.75.75,0,0,1,.06-.87A.81.81,0,0,1,230.18,303.06Z" transform="translate(-38.97 -11)"/><path class="cls-3" d="M229.37,124.06a.85.85,0,0,1-.53,1.1l-.21.06v0c-.08-.54-.14-1.09-.22-1.63h.22a.68.68,0,0,1,.55.2,0,0,0,0,1,0,0,2.21,2.21,0,0,0,.19.3Z" transform="translate(-38.97 -11)"/><path class="cls-3" d="M229.37,124a2.21,2.21,0,0,1-.19-.3A.76.76,0,0,1,229.37,124Z" transform="translate(-38.97 -11)"/><path class="cls-3" d="M229.12,149.83a.84.84,0,0,1-.72,1.25,51.51,51.51,0,0,1-16.84-1.42.67.67,0,0,0-.34-.4,17.92,17.92,0,0,1-4.19-2.65c-.28.46-.54.93-.81,1.39,1.08.4,2.16.76,3.24,1.08l-2-.1c-.55-.38-1.09-.77-1.63-1.2s.06-1.65.81-1.38a50.78,50.78,0,0,0,19.39,3.14,4,4,0,0,1,1.63,1.11c.24-.41.47-.83.72-1.24-.78.06-1.57.1-2.35.12a8.31,8.31,0,0,1-2.47-1.48c-1.16-1.37-1.21-3.06-2.06-4.57l.19-.11c.63.22,1.25.43,1.88.62a7.54,7.54,0,0,0,2.12,3.44C226.95,148.47,228.32,148.44,229.12,149.83Z" transform="translate(-38.97 -11)"/><path class="cls-8" d="M228.74,303.88c.12.22.25.45.4.67-4.58,4.88-11,8.51-16.92,11.25-.24-.23-.51-.45-.77-.66h0l-.5-.54a72.07,72.07,0,0,0,12-7c1.38-1,4.54-2.87,5.65-4.65l.19.12A.75.75,0,0,0,228.74,303.88Z" transform="translate(-38.97 -11)"/><path class="cls-8" d="M227.4,297c.82,1.89,1.93,4.25,1.47,5.4a2.56,2.56,0,0,1-.25.49c-1.1,1.79-4.27,3.66-5.65,4.65a72.07,72.07,0,0,1-12,7c-1.57-1.72-5.39-5.85-7.41-7.83,3.52-.06,7-.25,10.47-.51C219.7,305.86,223.84,301.67,227.4,297Z" transform="translate(-38.97 -11)"/><path class="cls-8" d="M229.17,123.74a.68.68,0,0,0-.55-.2h-.22c-8.95.35-16.41-7.56-22.64-13-5.58-4.93-13.25-9.43-16.13-17.15-.23-.62-.82-2.16-1.22-3,2.71-.42,5.14-.4,6.31.77,5,5-4.1-14-7.56-20.81-3.15-6.22-6.56-12.13-12-16.6-.82-.67-2,.5-1.17,1.17,5.35,4.37,8.69,10.19,11.78,16.27,1.67,3.28,6.51,14.35,7.88,17.77.32.81-2.22.86-5.51.94q-.07-.07-.1,0c-3.86.08-8.72.18-11.27,1.46a3.38,3.38,0,0,0-.64.42c0-.12,0-.26,0-.4a289.78,289.78,0,0,0-5.18-29.46c-.23-1-1.83-.61-1.6.43,1.29,5.88,2.46,11.78,3.44,17.7q.78,4.67,1.41,9.33c.24,1.78,1.07,3.6-.24,3.9-.57.13-1.89-.46-2.94-1a16.85,16.85,0,0,0-.61-4.24A228,228,0,0,0,160,47.85c-.36-1-2-.56-1.6.44a240.11,240.11,0,0,1,8.91,33c.41,1.94,2.51,7.68,2.07,10.22a.83.83,0,0,0-.5,0,5.8,5.8,0,0,0-2.94-1.7,7.34,7.34,0,0,0-1.3,0q-1.85.65-3.71,1.32c-2.67.57-4.09-1.27-4.9-4.58a.71.71,0,0,0-.13-.64l0,0c-2.05-9.84.49-30.76-6.21-41.24-.57-.89-2-.07-1.43.84,6.25,9.78,5.44,28.24,4.75,38.81a7.43,7.43,0,0,0-2.64.31A5.49,5.49,0,0,0,147.94,86c-1,.94-.49,1.44-2,.89-.9-.32-1.86-1.68-3-1.11-1.4.69-.38,2.1-2.29.41-1.48-1.28-3.64-3.07-6.64-.94-.38-10.15-.61-28.75,5.7-38.64.57-.9-.85-1.73-1.42-.84-9.22,14.44.19,45.41-15.2,44-.58-.06-2.33.45-2.39,1.09-.54-1.86.42-8,.61-8.93,2-11,4.43-22,8.24-32.53a.73.73,0,0,0-.68-1l.2-.55-.6.6a.77.77,0,0,0-.51.51l.51-.51a.71.71,0,0,1,.4,0A187.32,187.32,0,0,0,119.56,88c-.15,1.24-.57,2.64-.14,3.6a13.86,13.86,0,0,1-3.31,1.4c-2.17.25-1.39.51-1.41-1.24,0-.13,0-.26,0-.42-.29-3.39,1.13-8,1.68-11.33,1-5.92,2.16-11.82,3.45-17.7.22-1-1.37-1.48-1.6-.43a290.34,290.34,0,0,0-5.15,29.17c-5.74,2.65-14.31-4.33-15.79-3.85-1.08.35-1.27,2-1.21.86.21-.9.45-1.81.73-2.7.45-1.5,1-3,1.54-4.42a116.86,116.86,0,0,1,5-10.89c3.09-6.09,6.42-11.89,11.78-16.27.83-.67-.35-1.84-1.17-1.17-5.47,4.47-8.88,10.38-12,16.6C98.45,76,94.73,88.89,95.45,88.94c.41,0,2.32.41,4,.78a.92.92,0,0,0-.06.32c.06,8.17-10.56,15.54-16.14,20.46-6.23,5.5-13.69,13.4-22.63,13h-.22a.7.7,0,0,0-.69.38l-.07,0c2.61-4.32,4.48-9.38,6.08-13.42,5.34-13.46,8.8-27.57,14-41.07,5.49-14.14,13.38-27,24.44-37.45C114.41,22.27,167.14-19.15,206,61.61c6.95,14.45,10.36,30.25,15.93,45.24C223.73,111.7,225.89,118.33,229.17,123.74ZM186.28,50.85c.26.64,1.33.36,1.07-.3-2.18-5.4-5.9-10.33-9.77-14.65-5.38-6-12-11.2-19.64-13.86a31.24,31.24,0,0,0-12.65-1.69c-3.89.31-7.65-.62-11.57.08-8,1.43-15,6.71-20.6,12.41-4.93,5-9.83,11.11-12.5,17.71a.54.54,0,0,0,.25.62l.38.2a.58.58,0,0,0,.66-.09c8.27-7.38,17.71-14.08,28.53-17.1,5.29-1.48,10.67-1.59,16.09-1.53a.64.64,0,0,0,.21,0,48.38,48.38,0,0,1,17.15,3.36,75.51,75.51,0,0,1,11.28,5.77,54.69,54.69,0,0,1,6.07,4.31C182.83,47.41,185.51,48.93,186.28,50.85Z" transform="translate(-38.97 -11)"/><path class="cls-3" d="M228.62,125.19v0a30.3,30.3,0,0,1-18.07-.13c-.57-.67-1.14-1.39-1.67-2.15l.07-.17a29,29,0,0,0,14.42,1.86A16.59,16.59,0,0,0,228.62,125.19Z" transform="translate(-38.97 -11)"/><path class="cls-3" d="M228.4,123.56c.08.54.14,1.09.22,1.63a16.59,16.59,0,0,1-5.24-.56A30.42,30.42,0,0,0,228.4,123.56Z" transform="translate(-38.97 -11)"/><path class="cls-3" d="M228.4,123.55h0a30.42,30.42,0,0,1-5,1.07c-7.25-1.93-13.41-8.22-18.79-13-6-5.29-16.36-12.32-16.6-21.22l.42-.08c.41.82,1,2.36,1.22,3,2.88,7.72,10.54,12.22,16.13,17.15C212,116,219.46,123.9,228.4,123.55Z" transform="translate(-38.97 -11)"/><path class="cls-3" d="M228.4,149.42c-.24.41-.47.83-.72,1.24a4,4,0,0,0-1.63-1.11C226.84,149.52,227.62,149.48,228.4,149.42Z" transform="translate(-38.97 -11)"/><path class="cls-7" d="M228.25,294.62c-.26-1.07.1-.71.67.3q-.74,1-1.52,2.08a14,14,0,0,1-.74-1.94.72.72,0,0,1,0-.51,4.79,4.79,0,0,1,.34-.4A.79.79,0,0,1,228.25,294.62Z" transform="translate(-38.97 -11)"/><path class="cls-9" d="M227,294.16a4.79,4.79,0,0,0-.34.4A.71.71,0,0,1,227,294.16Z" transform="translate(-38.97 -11)"/><path class="cls-7" d="M226.66,295.06a14,14,0,0,0,.74,1.94c-3.56,4.67-7.7,8.86-13.4,9.25-3.43.25-6.95.45-10.47.51a10.66,10.66,0,0,0-1.15-1l-.34-.35a.75.75,0,0,0-.55-.25V305c2.44,0,4.88-.14,7.29-.22s5.16.12,7.51-.43c4.51-1.06,7.65-6.4,10.37-9.79,0,0,0,0,0,0A.72.72,0,0,0,226.66,295.06Z" transform="translate(-38.97 -11)"/><path class="cls-3" d="M222.36,134.68c.74.06,1.21,1.17.41,1.54a2.9,2.9,0,0,1-.39.17l0-.06c-.14-.51-.29-1-.42-1.54v-.14Z" transform="translate(-38.97 -11)"/><path class="cls-3" d="M222.63,142.18a9.05,9.05,0,0,1,.95,1.83c-.63-.19-1.25-.4-1.88-.62Z" transform="translate(-38.97 -11)"/><path class="cls-3" d="M222.78,330.83l-1.64.78c-.79-.66.38-1.8,1.19-1.16Z" transform="translate(-38.97 -11)"/><path class="cls-3" d="M222.7,142l-.07.19-.93,1.21-.19.11c-.1-.17-.2-.33-.31-.49a.83.83,0,0,1,.94-1.21Z" transform="translate(-38.97 -11)"/><path class="cls-3" d="M222.36,136.33l0,.06c-3.42,1.5-6.63,1.22-10,.77l-3.41-2.05V135c3.2.39,6.25,1.16,9.35.78C219.61,136.06,221,136.22,222.36,136.33Z" transform="translate(-38.97 -11)"/><path class="cls-3" d="M221.94,134.79c.13.52.28,1,.42,1.54-1.39-.11-2.75-.28-4.07-.51A11.34,11.34,0,0,0,221.94,134.79Z" transform="translate(-38.97 -11)"/><path class="cls-3" d="M221.95,134.65v.14a11.34,11.34,0,0,1-3.65,1,40,40,0,0,1-7.21-2v0a14,14,0,0,0,4.37-.3A39,39,0,0,0,221.95,134.65Z" transform="translate(-38.97 -11)"/><path class="cls-8" d="M223.38,124.63A29,29,0,0,1,209,122.77a5.63,5.63,0,0,1-.55-.21c-.66-.28-1.33.65-.94,1.21l.34.49a26.31,26.31,0,0,0,8.22,7.47,10,10,0,0,1-4.73.49l-.22,0c-1-.07-1,1.32-.22,1.62l.21.08a40,40,0,0,0,7.21,2c-3.1.38-6.15-.4-9.35-.78l-.43-.06c-.86-.09-1.07,1.16-.42,1.54l.35.21,3.53,2.12c-3.58.33-8-2.71-10.65-4.39a47.2,47.2,0,0,1-12.77-11.76A49.07,49.07,0,0,1,179.15,93a.76.76,0,0,0-.1-.4c2.38-.56,5.81-1.63,8.93-2.16.24,8.9,10.6,15.93,16.6,21.22C210,116.41,216.14,122.7,223.38,124.63Z" transform="translate(-38.97 -11)"/><path class="cls-3" d="M218.33,131.1a.82.82,0,0,1,0,1.42,16.35,16.35,0,0,1-2.88,1,36.87,36.87,0,0,1-4.15-1.32,10,10,0,0,0,4.73-.49c.47.29,1,.55,1.47.81V131.1a11.21,11.21,0,0,1-1.47.62,26.31,26.31,0,0,1-8.22-7.47l.15-.11c.86.35,1.72.66,2.59.94A25.35,25.35,0,0,0,218.33,131.1Z" transform="translate(-38.97 -11)"/><path class="cls-6" d="M218.39,323.78l-1.37.62a.72.72,0,0,1-.2-.21c-1.85-2.68-3.73-5.64-6.3-7.69a.8.8,0,0,0,1-.34,0,0,0,0,1,0,0l.73-.34a41.88,41.88,0,0,1,6,7.54A.77.77,0,0,1,218.39,323.78Z" transform="translate(-38.97 -11)"/><path class="cls-3" d="M217,324.4l1.37-.62A.87.87,0,0,1,217,324.4Z" transform="translate(-38.97 -11)"/><path class="cls-3" d="M217.5,131.1v1.42c-.51-.25-1-.52-1.47-.81A11.21,11.21,0,0,0,217.5,131.1Z" transform="translate(-38.97 -11)"/><path class="cls-5" d="M217.31,387.08q-2,2.07-3.92,4.25c-9.09,10.54-23.5,10-35.53,7.25,0-.29,0-.56,0-.81l.22-.73c4.14,1.25,8.08,2,11.55,1.65C199.74,397.7,209,393.24,217.31,387.08Z" transform="translate(-38.97 -11)"/><path class="cls-5" d="M215.45,334.28l-1.19.56-.5-1,.78-.43Z" transform="translate(-38.97 -11)"/><path class="cls-3" d="M214.44,138.42a.83.83,0,0,1,0,1.42c-7.43,3.5-19.13-7.06-23.59-11.81a47.67,47.67,0,0,1-8.33-12.2c.11-.25.21-.5.31-.75.29-.73-.5-1.15-1.08-.94A52.15,52.15,0,0,1,177.5,93a.19.19,0,0,1,0-.08c.44-.07,1-.18,1.54-.32a.76.76,0,0,1,.1.4,49.07,49.07,0,0,0,9.39,29.7,47.2,47.2,0,0,0,12.77,11.76c2.66,1.68,7.07,4.72,10.65,4.39l1.63,1v-1.42a4.91,4.91,0,0,1-1.63.44l-3.53-2.12.07-.1c1.31.14,2.58.34,3.83.52Z" transform="translate(-38.97 -11)"/><path class="cls-5" d="M214.55,333.43l-.78.43.5,1-.28.3c-1.79-1.62-3.53-3.31-5.21-5A72.58,72.58,0,0,1,195.89,312c-.83-1.63-1.88-3.54-3-5.56a1,1,0,0,0,.19,0l1.75.12c.55.94,1.09,1.88,1.6,2.83,3.6,6.71,7.16,12.75,12.44,18.34l.19.2-.77.34.45,1,1.14-.51C211.36,330.41,212.94,331.94,214.55,333.43Z" transform="translate(-38.97 -11)"/><path class="cls-3" d="M213.6,138.42v1.42l-1.63-1A4.91,4.91,0,0,0,213.6,138.42Z" transform="translate(-38.97 -11)"/><path class="cls-3" d="M215.45,133.53a14,14,0,0,1-4.37.3c.07-.54.14-1.08.22-1.62A36.87,36.87,0,0,0,215.45,133.53Z" transform="translate(-38.97 -11)"/><path class="cls-3" d="M208.92,135.11l3.41,2.05c-1.25-.18-2.51-.38-3.83-.52C208.64,136.13,208.78,135.62,208.92,135.11Z" transform="translate(-38.97 -11)"/><path class="cls-8" d="M212.22,315.81l-.73.34a.78.78,0,0,0-.09-1c.33.35.32.32,0,0C211.71,315.36,212,315.58,212.22,315.81Z" transform="translate(-38.97 -11)"/><path class="cls-3" d="M211.56,149.66a.84.84,0,0,1-.76,1.15l-.42,0v-.09c.12-.42.23-.84.34-1.26C211,149.52,211.28,149.59,211.56,149.66Z" transform="translate(-38.97 -11)"/><path class="cls-8" d="M211.4,315.13a.78.78,0,0,1,.09,1,0,0,0,0,0,0,0l-.35.15a.83.83,0,0,1-.84-.07Z" transform="translate(-38.97 -11)"/><path class="cls-8" d="M211.45,315.15c.28.31.29.34,0,0l-.09-.1.12.1Z" transform="translate(-38.97 -11)"/><path class="cls-3" d="M211.56,149.66c-.28-.07-.56-.13-.84-.22a2.76,2.76,0,0,0,.08-.29l-1.33-.07c-1.08-.32-2.16-.68-3.24-1.08.26-.46.53-.93.81-1.39a17.92,17.92,0,0,0,4.19,2.65A.67.67,0,0,1,211.56,149.66Z" transform="translate(-38.97 -11)"/><path class="cls-9" d="M211.13,316.31l.35-.15a.8.8,0,0,1-1,.34h0c-.07-.07-.14-.12-.21-.18l0,0,0,0A.83.83,0,0,0,211.13,316.31Z" transform="translate(-38.97 -11)"/><path class="cls-8" d="M211.44,315.13l-.12-.1-.42-.43h0Z" transform="translate(-38.97 -11)"/><path class="cls-8" d="M211.32,315l.09.1-1.11,1.11A1,1,0,0,1,210,316a0,0,0,0,1,0,0,.94.94,0,0,1,.22-1l.06,0,.34-.15h0a.73.73,0,0,1,.47.17Z" transform="translate(-38.97 -11)"/><path class="cls-8" d="M211.32,315l-.19-.14a.73.73,0,0,0-.47-.17l.24-.12Z" transform="translate(-38.97 -11)"/><path class="cls-3" d="M211.09,132.17l.22,0c-.08.54-.15,1.08-.22,1.62v0l-.21-.08C210,133.5,210.09,132.11,211.09,132.17Z" transform="translate(-38.97 -11)"/><path class="cls-8" d="M210.94,314.59h0l-7.51-7.84a.31.31,0,0,0,.14,0C205.55,308.75,209.38,312.87,210.94,314.59Z" transform="translate(-38.97 -11)"/><path class="cls-8" d="M210.9,314.61l-.24.12h0a.61.61,0,0,0-.4.19.68.68,0,0,0-.22,1,0,0,0,0,0,0,0,.78.78,0,0,0,.23.29l0,0-9.11-9.51c.75,0,1.5,0,2.26,0Z" transform="translate(-38.97 -11)"/><path class="cls-3" d="M210.8,149.15a2.76,2.76,0,0,1-.08.29c-.42-.11-.84-.22-1.26-.35Z" transform="translate(-38.97 -11)"/><path class="cls-3" d="M210.72,149.44c-.11.42-.22.84-.34,1.26a27.31,27.31,0,0,1-2.89-1.71l2,.1C209.88,149.22,210.3,149.33,210.72,149.44Z" transform="translate(-38.97 -11)"/><path class="cls-9" d="M210.63,314.74l-.34.15-.06,0A.61.61,0,0,1,210.63,314.74Z" transform="translate(-38.97 -11)"/><path class="cls-9" d="M210.29,316.31c.07.06.14.11.21.18a.78.78,0,0,1-.26-.19l0,0Z" transform="translate(-38.97 -11)"/><path class="cls-3" d="M210.38,150.69v.09c-2.57-.13-5.14-.25-7.71-.4-.42-.5-.83-1-1.24-1.5v-.21l6,.31A27.31,27.31,0,0,0,210.38,150.69Z" transform="translate(-38.97 -11)"/><path class="cls-9" d="M210.29,316.25l0,0A.78.78,0,0,1,210,316,1,1,0,0,0,210.29,316.25Z" transform="translate(-38.97 -11)"/><path class="cls-8" d="M201.13,306.8l9.11,9.51c-3-3.2-7.37-5.4-9.31-9.51Z" transform="translate(-38.97 -11)"/><path class="cls-9" d="M210.24,314.93a.94.94,0,0,0-.22,1A.68.68,0,0,1,210.24,314.93Z" transform="translate(-38.97 -11)"/><path class="cls-5" d="M209.86,328.83l-1.14.51-.45-1L209,328C209.31,328.28,209.59,328.56,209.86,328.83Z" transform="translate(-38.97 -11)"/><path class="cls-3" d="M210.57,125.08c-.87-.28-1.73-.58-2.59-.94l.93-1.21C209.43,123.69,210,124.41,210.57,125.08Z" transform="translate(-38.97 -11)"/><path class="cls-3" d="M209,122.77l-.07.17-.93,1.21-.15.11-.34-.49c-.4-.56.28-1.49.94-1.21A5.63,5.63,0,0,0,209,122.77Z" transform="translate(-38.97 -11)"/><path class="cls-3" d="M208.93,135v.07c-.14.51-.29,1-.42,1.53l-.07.1-.35-.21c-.65-.39-.44-1.63.42-1.54Z" transform="translate(-38.97 -11)"/><path class="cls-10" d="M208,523.57a8.16,8.16,0,0,1,.19,6.06c-4.59,11.37-23.82,5.67-30.46.13-5.06-4.24-7.86-10.37-10.09-16.54h0a.72.72,0,0,0,.26.4c.75.62,1.53,1.25,2.35,1.88q1,2.28,2.08,4.5a25.11,25.11,0,0,0,18.19,13.93c5,.9,15.15.69,16.43-5.94.68-3.51-2-6-3.64-8.66q-.38-.6-.73-1.22a6.63,6.63,0,0,0-.22-4.18l.13-.07C204.26,517.12,206.71,520.19,208,523.57Z" transform="translate(-38.97 -11)"/><path class="cls-11" d="M203.34,519.32C205,522,207.67,524.47,207,528c-1.28,6.64-11.4,6.85-16.43,5.94A25.11,25.11,0,0,1,172.36,520q-1.11-2.22-2.08-4.5c7,5.48,16.38,11,25.38,8.64,3.21-.85,6.13-3.07,7-6Q203,518.72,203.34,519.32Z" transform="translate(-38.97 -11)"/><path class="cls-3" d="M204.74,152.92c.35.44.3,1.27-.38,1.39a9.8,9.8,0,0,1-5.35-.19c-1.27-.46-2.86-2.34-4.24-3.36a5.38,5.38,0,0,0-.93-2.12l0-.19c3.66.51,3,4.93,8.71,4.43l1,1.2.36-1.38a11,11,0,0,1-1.35.18c-.78-.94-1.56-1.88-2.33-2.82a.84.84,0,0,1,.58-1.42l.6,0v.21c-.2.47-.39.95-.58,1.41l1.82.09C203.35,151.23,204,152.07,204.74,152.92Z" transform="translate(-38.97 -11)"/><path class="cls-3" d="M203.94,152.71l-.36,1.38-1-1.2A11,11,0,0,0,203.94,152.71Z" transform="translate(-38.97 -11)"/><path class="cls-9" d="M203.53,306.76a.31.31,0,0,1-.14,0l-1-1A10.66,10.66,0,0,1,203.53,306.76Z" transform="translate(-38.97 -11)"/><path class="cls-7" d="M203.39,306.76c-.76,0-1.51,0-2.26,0l-.25-.26-.11-.13-.07-.14a.84.84,0,0,1,.33-1,.22.22,0,0,1,.09,0,.9.9,0,0,1,1.14.51c0-.1,0-.1.13,0Z" transform="translate(-38.97 -11)"/><path class="cls-11" d="M202.39,513.91a6.63,6.63,0,0,1,.22,4.18c-.57-1-1.1-2-1.6-3a6.61,6.61,0,0,0-.22-.72C200.43,513.36,202,512.93,202.39,513.91Z" transform="translate(-38.97 -11)"/><path class="cls-3" d="M202.67,150.38l-1.82-.09c.2-.46.39-.94.58-1.41C201.84,149.38,202.25,149.89,202.67,150.38Z" transform="translate(-38.97 -11)"/><path class="cls-10" d="M202.53,513.84l-.13.07c-.36-1-2-.55-1.6.44a6.61,6.61,0,0,1,.22.72c-1.9-3.86-3.43-8-5.08-11.87A275.49,275.49,0,0,1,184.77,473c-5.1-17.12-7.26-38.69-7.94-56.53a4.51,4.51,0,0,0,1.06.06c.77,18.15,3.76,40.85,9.2,58.4A310.38,310.38,0,0,0,202,512.75Q202.24,513.3,202.53,513.84Z" transform="translate(-38.97 -11)"/><path class="cls-9" d="M202,305.36l.34.35c-.12-.09-.17-.09-.13,0a.9.9,0,0,0-1.14-.51.65.65,0,0,1,.38-.11A.75.75,0,0,1,202,305.36Z" transform="translate(-38.97 -11)"/><path class="cls-7" d="M201.49,305v.07a.65.65,0,0,0-.38.11.22.22,0,0,0-.09,0,.66.66,0,0,0-.38.9.22.22,0,0,0,0,.09l.07.14a3,3,0,0,0,.17.4c-2.05,0-4.09-.06-6.11-.18l-1-1.73C196.33,305.08,198.91,305.09,201.49,305Z" transform="translate(-38.97 -11)"/><path class="cls-11" d="M201,515.07c.5,1,1,2,1.6,3-.83,3-3.75,5.18-7,6-9,2.36-18.33-3.15-25.38-8.64-.45-1-.88-2.06-1.28-3.11a.52.52,0,0,1,.1.07c6.41,5.29,14.79,11.11,23.59,10.47C196.9,522.6,202.23,519.91,201,515.07Z" transform="translate(-38.97 -11)"/><path class="cls-9" d="M200.87,306.53l.25.26h-.2a3,3,0,0,1-.17-.4Z" transform="translate(-38.97 -11)"/><path class="cls-10" d="M201,515.07c1.21,4.84-4.11,7.53-8.33,7.84-8.8.64-17.18-5.17-23.59-10.47a.52.52,0,0,0-.1-.07c-6.64-17-8.47-35.7-10-53.67-1.21-14.06-1.36-28-1.18-42a5.22,5.22,0,0,0,.1-1c5.26,1.58,12.5,2.22,17.72.67a6.4,6.4,0,0,1,1.21.07c.68,17.83,2.85,39.41,7.94,56.53a275.49,275.49,0,0,0,11.16,30.21C197.58,507.05,199.12,511.21,201,515.07Z" transform="translate(-38.97 -11)"/><path class="cls-9" d="M200.7,306.26a.22.22,0,0,1,0-.09.66.66,0,0,1,.38-.9A.84.84,0,0,0,200.7,306.26Z" transform="translate(-38.97 -11)"/><path class="cls-9" d="M191.17,253.77c1.56,1.71,7.09,4.8,6.72,7.54-.26,2-3.08,2.29-4.62,2.9q-3.67,1.44-7.5,2.82l.13-.52c.1-.4-.08-.5-.36-.41l-.17-.46a48,48,0,0,0,6.5-2.68,4.6,4.6,0,0,0,3.68-2.81c-.71-.69-1.43-1.37-2.17-2A36.75,36.75,0,0,1,189,253.8c-4.72-6.06-4.61-16.25-5.21-23.6-.89-11-1.11-22-3.54-32.73-.24-1,.12-17,1.59-.44,1.09,12.28,2.72,24.1,3.86,36.11C186.32,239.64,186.53,248.68,191.17,253.77Z" transform="translate(-38.97 -11)"/><path class="cls-3" d="M187.16,70.33c3.45,6.78,12.55,25.81,7.56,20.81-1.17-1.17-3.6-1.19-6.31-.77a1.76,1.76,0,0,0-.31-.5c3.3-.08,5.83-.13,5.51-.94-1.37-3.42-6.21-14.49-7.88-17.77-3.09-6.08-6.43-11.9-11.78-16.27-.83-.67.35-1.84,1.17-1.17C180.6,58.2,184,64.11,187.16,70.33Z" transform="translate(-38.97 -11)"/><path class="cls-3" d="M195.53,155c.25.87-.78,1.28-1.39.81-.1-.08-.21-.15-.31-.24l.1-.12c.46-.26.93-.53,1.38-.81l.12,0C195.46,154.72,195.5,154.85,195.53,155Z" transform="translate(-38.97 -11)"/><path class="cls-3" d="M195.43,154.59l-.12,0-1.73-1.35a9.21,9.21,0,0,0-.89-3.46.84.84,0,0,1,.58-1.41,3.44,3.44,0,0,1,.61.06l0,.19c-.2.47-.4.95-.58,1.41a2.85,2.85,0,0,1,1.51.71C195.07,152,195.13,153.36,195.43,154.59Z" transform="translate(-38.97 -11)"/><path class="cls-3" d="M195.31,154.62c-.45.28-.92.54-1.38.81a18.09,18.09,0,0,1-.35-2.15Z" transform="translate(-38.97 -11)"/><path class="cls-5" d="M194.82,306.62l-1.75-.12a1,1,0,0,1-.19,0l-.58-1a.69.69,0,0,1,.77-.6l.71,0Z" transform="translate(-38.97 -11)"/><path class="cls-3" d="M193.86,148.64a5.38,5.38,0,0,1,.93,2.12,2.85,2.85,0,0,0-1.51-.71C193.46,149.59,193.66,149.12,193.86,148.64Z" transform="translate(-38.97 -11)"/><path class="cls-3" d="M193.93,155.43l-.1.12-4.38-3.4-.23-1.61-1.38.36c.54.42,1.07.84,1.61,1.25.12.82.24,1.63.35,2.45.38.66-.44,1.67-1.13,1.13-.11-.09-.21-.19-.32-.26l0,0,1.13-1.14a16.43,16.43,0,0,0-2.12-1.41,7.3,7.3,0,0,1,.24-2.79.83.83,0,0,1,1.38-.36l4.57,3.54A18.09,18.09,0,0,0,193.93,155.43Z" transform="translate(-38.97 -11)"/><path class="cls-5" d="M193.77,304.89l-.71,0a.69.69,0,0,0-.77.6c-4.74-8.31-10.81-18-10.81-18a5.48,5.48,0,0,1,0-.64c.18.55.87.39,1-.47l0-.26a2.1,2.1,0,0,1,.24.42C185.73,293,190,298.8,193.77,304.89Z" transform="translate(-38.97 -11)"/><path class="cls-5" d="M192.29,305.44l.58,1A.87.87,0,0,1,192.29,305.44Z" transform="translate(-38.97 -11)"/><path class="cls-3" d="M189.51,154.3l-1.13,1.14a7.58,7.58,0,0,1-1-2.55A16.43,16.43,0,0,1,189.51,154.3Z" transform="translate(-38.97 -11)"/><path class="cls-3" d="M189.22,150.54l.23,1.61c-.54-.41-1.07-.83-1.61-1.25Z" transform="translate(-38.97 -11)"/><path class="cls-3" d="M188.39,155.44l0,0a10.75,10.75,0,0,0-1.63-1.13,9,9,0,0,1-1-2.08l-.94,1.21a11.32,11.32,0,0,1,1.93.87,6.9,6.9,0,0,0,.47.68.84.84,0,0,1-.94,1.21,17.31,17.31,0,0,1-5.16-2.82c-1.28-1.06-3.78-5.22-3.39-1.31a.81.81,0,0,1-.92.82.87.87,0,0,0-.14-.83l-.35.6a.68.68,0,0,0,.5.23.72.72,0,0,1-1.15.47l-.19-.08,0-.06c.33-.43.67-.86,1-1.3l0,0,1-.42a2.31,2.31,0,0,0-1.56-1c-.07-1.27.11-2.58,1.29-3.12a.85.85,0,0,1,1,.13c2.28,2.42,3.66,4.56,6.28,6.11a9.05,9.05,0,0,0,1.28,2.27l.94-1.21a13.38,13.38,0,0,1-2.22-1.06,4.55,4.55,0,0,1-.19-.5c-.24-.57.18-1.53.94-1.21a19.45,19.45,0,0,1,2.15,1A7.58,7.58,0,0,0,188.39,155.44Z" transform="translate(-38.97 -11)"/><path class="cls-3" d="M188.41,90.37l-.42.08c0-.13,0-.28,0-.41a.48.48,0,0,1,0-.17h.1A1.76,1.76,0,0,1,188.41,90.37Z" transform="translate(-38.97 -11)"/><path class="cls-3" d="M188.1,89.88H188S188.06,89.83,188.1,89.88Z" transform="translate(-38.97 -11)"/><path class="cls-3" d="M188,90c0,.13,0,.28,0,.41-3.12.53-6.55,1.6-8.93,2.16a.83.83,0,0,0-1.54.32,2.67,2.67,0,0,1-1.21,0l-.17-.08a9.79,9.79,0,0,0,0-1.09,3.38,3.38,0,0,1,.64-.42c2.55-1.28,7.41-1.38,11.27-1.46A.48.48,0,0,0,188,90Z" transform="translate(-38.97 -11)"/><path class="cls-12" d="M187.35,50.56c.26.66-.81.94-1.07.3Z" transform="translate(-38.97 -11)"/><path class="cls-12" d="M187.35,50.56l-1.07.3c-.44-1.1-.95-2.19-1.51-3.28A7.49,7.49,0,0,1,187.35,50.56Z" transform="translate(-38.97 -11)"/><path class="cls-3" d="M186.71,154.64l-.94,1.21a9.05,9.05,0,0,1-1.28-2.27A13.38,13.38,0,0,0,186.71,154.64Z" transform="translate(-38.97 -11)"/><path class="cls-3" d="M185.74,152.25a9,9,0,0,0,1,2.08,11.32,11.32,0,0,0-1.93-.87Z" transform="translate(-38.97 -11)"/><path class="cls-9" d="M185.53,266.11c.29-.09.46,0,.36.41l-.13.52c-.5.19-1,.38-1.52.55l0-.11A2.29,2.29,0,0,1,185.53,266.11Z" transform="translate(-38.97 -11)"/><path class="cls-5" d="M184.24,267.59c.52-.18,1-.36,1.52-.55a153.92,153.92,0,0,0-3.25,19.06c-.4-.5-.87-.47-1,.74a1,1,0,0,1,0-.46C182.19,280,182.66,273.77,184.24,267.59Z" transform="translate(-38.97 -11)"/><path class="cls-9" d="M185.36,265.64l.17.46a2.29,2.29,0,0,0-1.26,1.37l0,.11c-3.07,1.13-6.2,2.22-9.34,3.3-10.62,3.64-20.79,6.54-32,4.82a4.55,4.55,0,0,0,.54-.08l.22,0a.82.82,0,0,0,.35-1.38c.63.09,1.25.15,1.86.21,0,.18,0,.35,0,.53a.83.83,0,0,0,1.65,0c0-.13,0-.28,0-.41,10,.5,19.35-2.5,28.86-6C179.24,267.54,182.35,266.66,185.36,265.64Z" transform="translate(-38.97 -11)"/><path class="cls-12" d="M184.77,47.58c.56,1.08,1.07,2.17,1.51,3.28-.77-1.92-3.45-3.44-5-4.72a54.69,54.69,0,0,0-6.07-4.31,75.51,75.51,0,0,0-11.28-5.77,48.38,48.38,0,0,0-17.15-3.36.64.64,0,0,1-.21,0l2.42,0a.56.56,0,0,0,.29-1,51.19,51.19,0,0,1,16.64,4A67.64,67.64,0,0,1,178,42.39q3.09,2.15,6,4.57Z" transform="translate(-38.97 -11)"/><path class="cls-12" d="M102,49.88a7.51,7.51,0,0,1,1.09-1.15q2.13-1.84,4.37-3.56a74.08,74.08,0,0,1,17-10.09c8-3.3,15.94-3.62,24.49-3.5a.47.47,0,0,1,.29.09c-.83-.06-1.67-.08-2.49-.09a.56.56,0,0,0-.21,1.07c-5.43-.06-10.8.06-16.09,1.53-10.82,3-20.26,9.72-28.53,17.1a.58.58,0,0,1-.66.09l-.38-.2a.54.54,0,0,1-.25-.62c2.67-6.61,7.57-12.67,12.5-17.71,5.59-5.7,12.57-11,20.6-12.41,3.92-.69,7.68.23,11.57-.08A31.24,31.24,0,0,1,157.93,22c7.67,2.67,14.26,7.89,19.64,13.86,3.87,4.31,7.59,9.24,9.77,14.65a7.49,7.49,0,0,0-2.58-3,55.87,55.87,0,0,0-19.88-21,33.28,33.28,0,0,0-17.78-5.22c-1.41,0-2.83.32-4.24.29-1.18,0-2.34-.34-3.52-.43a22.79,22.79,0,0,0-8.81,1.16c-10.71,3.51-19.38,12.89-25.38,22.11-1.06,1.63-1.94,3.33-2.9,5C102.21,49.62,102.13,49.75,102,49.88Zm-.17.25a1.32,1.32,0,0,0-.12.19A1.66,1.66,0,0,1,101.88,50.14Z" transform="translate(-38.97 -11)"/><path class="cls-12" d="M184.77,47.58,184,47q-2.9-2.42-6-4.57a67.64,67.64,0,0,0-12.14-6.73,51.19,51.19,0,0,0-16.64-4,.47.47,0,0,0-.29-.09c-8.55-.12-16.45.2-24.49,3.5a74.08,74.08,0,0,0-17,10.09q-2.23,1.72-4.37,3.56A7.51,7.51,0,0,0,102,49.88c.09-.13.17-.26.22-.36,1-1.69,1.84-3.39,2.9-5,6-9.22,14.67-18.61,25.38-22.11a22.79,22.79,0,0,1,8.81-1.16c1.18.09,2.34.42,3.52.43,1.4,0,2.82-.26,4.24-.29a33.28,33.28,0,0,1,17.78,5.22A55.87,55.87,0,0,1,184.77,47.58Z" transform="translate(-38.97 -11)"/><path class="cls-3" d="M181.75,114.14c.58-.21,1.37.21,1.08.94-.1.25-.2.5-.31.75C182.24,115.28,182,114.71,181.75,114.14Z" transform="translate(-38.97 -11)"/><path class="cls-5" d="M182.51,286.09l0,.26c-.09.86-.78,1-1,.47C181.64,285.62,182.11,285.6,182.51,286.09Z" transform="translate(-38.97 -11)"/><path class="cls-6" d="M181.75,114.14c.24.57.5,1.14.77,1.69-3.5,8.36-10,14.93-17.44,20A65.79,65.79,0,0,1,154,142c-.36-.53-1.32-.61-1.48.19,0,.14-.06.29-.09.43a22.29,22.29,0,0,1-8.92,1.61,31.12,31.12,0,0,1-6.9-1.29c0-.25-.1-.51-.14-.75-.19-.95-1.53-.66-1.6.19a65.45,65.45,0,0,1-14.34-7.26c-6.55-4.32-12.24-10-14.93-17.45h0c.36-.67.71-1.37,1-2.06a.41.41,0,0,1,.06.12c4.27,14.29,19.61,23.93,35.76,26.68,7.17,1.21,15.36-3.79,21.15-7.63,7.51-5,14.26-11.65,17.6-20.15A.78.78,0,0,1,181.75,114.14Z" transform="translate(-38.97 -11)"/><path class="cls-6" d="M181.75,114.14a.78.78,0,0,0-.51.5c-3.34,8.5-10.09,15.17-17.6,20.15-5.79,3.84-14,8.85-21.15,7.63C126.33,139.67,111,130,106.72,115.74a.41.41,0,0,0-.06-.12,52.09,52.09,0,0,0,4.9-22.51,6,6,0,0,0,1.37-.25c0,4.28,3.31,1.89,7.41.14a.63.63,0,0,0,.43-.67c.83-.33,2.71-1,2.71-1a30.63,30.63,0,0,1,10.57,1c.24.09.15-1.92,0-5.19a.78.78,0,0,0,.5-.31c1-1.28,4.24.4,5.19.85a8.4,8.4,0,0,0,1,.49,24.94,24.94,0,0,0,6.32,1.16c.74,0,.88-.22,1.47-.51.21-.1.2-.52.35-.64.73-.58,2.4-2.35,4-2.27-.24,3.81-.43,6.28-.1,6.43a24.22,24.22,0,0,0,6.7,1c1.31-.13,2.48-1,3.75-1.18,1.94-.26,3.69.83,5.38,1,.46.07.92.67,1.44.52,3.44,1.59,6,3.06,6.06-.77l.17.08a2.67,2.67,0,0,0,1.21,0,.19.19,0,0,0,0,.08A52.15,52.15,0,0,0,181.75,114.14Zm-23.39,10.13c.76-.74-.41-1.91-1.17-1.17a18,18,0,0,1-15.47,5.12c-3.5-.44-8.31-1.68-10.25-4.94a.83.83,0,0,0-1.43.83c2.21,3.72,7.46,5.26,11.45,5.78A19.81,19.81,0,0,0,158.35,124.27Z" transform="translate(-38.97 -11)"/><path class="cls-3" d="M177.51,92.93a.83.83,0,0,1,1.54-.32C178.47,92.75,178,92.86,177.51,92.93Z" transform="translate(-38.97 -11)"/><path class="cls-5" d="M178.11,397l-.22.73h-1.1c0,.18,0,.36,0,.55-5-1.18-9.46-2.69-12.94-3.86a51.91,51.91,0,0,0-5.57-1.49c0-.79,0-1.59,0-2.37h-1.65c0,.65,0,1.33-.06,2-8.91-1.7-19.59-2.07-24.44-.67,0-.47,0-.93,0-1.37a.81.81,0,0,0-.95-.78,126.5,126.5,0,0,1,15-2C154.83,387.06,167.18,393.77,178.11,397Z" transform="translate(-38.97 -11)"/><path class="cls-5" d="M176.78,397.77h1.1c0,.24,0,.52,0,.81l-1.09-.25C176.77,398.13,176.77,397.95,176.78,397.77Z" transform="translate(-38.97 -11)"/><path class="cls-10" d="M177.89,416.52a4.51,4.51,0,0,1-1.06-.06c0-.35,0-.71,0-1A4,4,0,0,0,177.89,416.52Z" transform="translate(-38.97 -11)"/><path class="cls-10" d="M177.89,414.31a19.5,19.5,0,0,0,0,2.21,4,4,0,0,1-1.1-1.1A6.14,6.14,0,0,1,177.89,414.31Z" transform="translate(-38.97 -11)"/><path class="cls-6" d="M177.86,398.57c-.09,3.71,0,10.53,0,15.74a10.94,10.94,0,0,1-1.11.32c-.08-4.85-.17-11.49,0-16.31Z" transform="translate(-38.97 -11)"/><path class="cls-3" d="M177.48,151.51l-1,.42h0a3.13,3.13,0,0,0-.43-.28c0-.38-.09-.78-.1-1.19A2.31,2.31,0,0,1,177.48,151.51Z" transform="translate(-38.97 -11)"/><path class="cls-10" d="M176.77,414.63a10.94,10.94,0,0,0,1.11-.32,6.14,6.14,0,0,0-1.1,1.1C176.78,415.16,176.77,414.9,176.77,414.63Z" transform="translate(-38.97 -11)"/><path class="cls-13" d="M142.88,294.09c13.24,0,35.16-7,34.19-6.62-34.19,14.34-43.21,9.07-57.35,3.31l-6.49-2.1c-1-.4-2.21-1.65-1.24-1.21A72.36,72.36,0,0,0,142.88,294.09Z" transform="translate(-38.97 -11)"/><path class="cls-3" d="M176.66,152.08a.87.87,0,0,1,.14.83.68.68,0,0,1-.5-.23Z" transform="translate(-38.97 -11)"/><path class="cls-10" d="M176.78,415.42c0,.34,0,.69,0,1a6.4,6.4,0,0,0-1.21-.07c-5.23,1.54-12.46.9-17.72-.67a3.72,3.72,0,0,0-.47-2,3.18,3.18,0,0,0,.62-.52c4.84,1.69,13.2,2.82,18.74,1.42C176.77,414.9,176.78,415.16,176.78,415.42Z" transform="translate(-38.97 -11)"/><path class="cls-6" d="M176.77,398.32c-.17,4.82-.08,11.46,0,16.31-5.54,1.4-13.9.26-18.74-1.42.1-6.54.11-13.54.23-20.24a51.91,51.91,0,0,1,5.57,1.49C167.31,395.63,171.81,397.14,176.77,398.32Z" transform="translate(-38.97 -11)"/><path class="cls-3" d="M176.5,152c-.33.44-.67.87-1,1.3a2.7,2.7,0,0,1-.83-2.05.45.45,0,0,1,0-.24,7.29,7.29,0,0,1,1.32.69c0,.15,0,.3,0,.44l.39-.17h0Z" transform="translate(-38.97 -11)"/><path class="cls-3" d="M176,151.65a3.13,3.13,0,0,1,.43.28l-.39.17C176.05,152,176,151.81,176,151.65Z" transform="translate(-38.97 -11)"/><path class="cls-3" d="M176.09,91.75a9.79,9.79,0,0,1,0,1.09C175.59,92.56,175.67,92.14,176.09,91.75Z" transform="translate(-38.97 -11)"/><path class="cls-3" d="M176,91.35c0,.13,0,.28,0,.4-.42.39-.5.81,0,1.09,0,3.83-2.61,2.36-6.06.77h0a1.44,1.44,0,0,0,.81-1.35c1.06.54,2.37,1.14,2.94,1,1.31-.31.49-2.13.24-3.9q-.63-4.67-1.41-9.33c-1-5.92-2.15-11.82-3.44-17.7-.23-1,1.37-1.48,1.6-.43A289.78,289.78,0,0,1,176,91.35Z" transform="translate(-38.97 -11)"/><path class="cls-3" d="M175.92,150.46c0,.41.06.82.1,1.19a7.29,7.29,0,0,0-1.32-.69.86.86,0,0,1,1-.55Z" transform="translate(-38.97 -11)"/><path class="cls-3" d="M175.49,153.25l0,.06-.52-.2h0a.73.73,0,0,0-.19-.26,10.42,10.42,0,0,1-2.15-2.31c-.19.47-.39.95-.58,1.41l1.81.72a7.22,7.22,0,0,1-1.29.4,10,10,0,0,1-1.1-1.36c-.38-.47-.21-1.51.58-1.41a10.16,10.16,0,0,1,2.67.67.45.45,0,0,0,0,.24A2.7,2.7,0,0,0,175.49,153.25Z" transform="translate(-38.97 -11)"/><path class="cls-3" d="M175,153.11a.85.85,0,0,1-.55,1.1,11.37,11.37,0,0,1-4.16.55.78.78,0,0,0-.28-1.14l-1.85-.87v0a7.62,7.62,0,0,0,4.42.32,9.56,9.56,0,0,0,1,.95c.11-.43.23-.87.34-1.3l1,.4Z" transform="translate(-38.97 -11)"/><path class="cls-3" d="M175,153.1l-1-.4s0-.06,0-.09l-.12,0-1.81-.72c.2-.46.4-.94.58-1.41a10.42,10.42,0,0,0,2.15,2.31A.73.73,0,0,1,175,153.1Z" transform="translate(-38.97 -11)"/><path class="cls-3" d="M174,152.61s0,.06,0,.09l-.1,0Z" transform="translate(-38.97 -11)"/><path class="cls-3" d="M173.94,152.7c-.11.43-.23.87-.34,1.3a9.56,9.56,0,0,1-1-.95,7.22,7.22,0,0,0,1.29-.4Z" transform="translate(-38.97 -11)"/><path class="cls-3" d="M170.32,88a16.85,16.85,0,0,1,.61,4.24c-.61-.31-1.14-.6-1.38-.69a.36.36,0,0,0-.14,0c.44-2.55-1.67-8.28-2.07-10.22a240.11,240.11,0,0,0-8.91-33c-.36-1,1.24-1.43,1.6-.44A228,228,0,0,1,170.32,88Z" transform="translate(-38.97 -11)"/><path class="cls-3" d="M170.93,92.26a1.44,1.44,0,0,1-.81,1.35h0c-.44-.21-.9-.42-1.37-.62-.74-.32-.43-1.22.2-1.46.24.26.35.5.3.61a2.34,2.34,0,0,0,.2-.63.36.36,0,0,1,.14,0C169.79,91.66,170.32,91.95,170.93,92.26Z" transform="translate(-38.97 -11)"/><path class="cls-3" d="M170,153.63a.78.78,0,0,1,.28,1.14c-.33,0-.66-.06-1-.11.11-.39.21-.76.31-1.14a10.4,10.4,0,0,1-1.68-.2c.09-.19.17-.38.24-.56Z" transform="translate(-38.97 -11)"/><path class="cls-3" d="M170.08,93.61c-.53.15-1-.45-1.44-.52-1.69-.22-3.44-1.31-5.38-1-1.27.17-2.44,1-3.75,1.18a24.22,24.22,0,0,1-6.7-1c-.33-.15-.14-2.63.1-6.43a2.07,2.07,0,0,1,1.59.93.93.93,0,0,0,1.57-.2c.81,3.31,2.23,5.15,4.9,4.58q1.85-.68,3.71-1.32a7.34,7.34,0,0,1,1.3,0,5.8,5.8,0,0,1,2.94,1.7c-.63.23-.94,1.14-.2,1.46C169.17,93.2,169.64,93.41,170.08,93.61Z" transform="translate(-38.97 -11)"/><path class="cls-3" d="M169.24,154.65c.34.06.67.09,1,.11a.77.77,0,0,1-.69.41,11,11,0,0,1-8.68-4.26,5.63,5.63,0,0,1,.38-1.57h-1.43l-.23,0a3.51,3.51,0,0,1,.23-.78.84.84,0,0,1,1.43,0,9.76,9.76,0,0,0,5.74,4.59.73.73,0,0,0,.3,1.07l.2.09c.55.28,1.1.53,1.65.79Z" transform="translate(-38.97 -11)"/><path class="cls-3" d="M169.55,153.52c-.1.38-.2.75-.31,1.14a12.77,12.77,0,0,1-1.76-.39c.14-.32.28-.64.4-.95A10.4,10.4,0,0,0,169.55,153.52Z" transform="translate(-38.97 -11)"/><path class="cls-3" d="M168.91,91.54a.83.83,0,0,1,.5,0,2.34,2.34,0,0,1-.2.63C169.26,92,169.15,91.81,168.91,91.54Z" transform="translate(-38.97 -11)"/><path class="cls-3" d="M169.24,154.65l-.11.41c-.55-.26-1.1-.52-1.65-.79A12.77,12.77,0,0,0,169.24,154.65Z" transform="translate(-38.97 -11)"/><path class="cls-11" d="M169,512.38c.4,1,.83,2.08,1.28,3.11-.82-.63-1.6-1.26-2.35-1.88a.72.72,0,0,1-.26-.4A.88.88,0,0,1,169,512.38Z" transform="translate(-38.97 -11)"/><path class="cls-10" d="M169,512.38a.88.88,0,0,0-1.33.84h0c-.61-1.65-1.17-3.32-1.72-5a155.48,155.48,0,0,1-6.74-30.87,420.89,420.89,0,0,1-3.4-44.86c-.07-3.78-1.65-17.26.1-19.27l.34.29c.07.64.72,1.6.69,1.86.31.11.63.21,1,.31a5.22,5.22,0,0,1-.1,1c-.18,14,0,27.89,1.18,42C160.53,476.68,162.36,495.4,169,512.38Z" transform="translate(-38.97 -11)"/><path class="cls-3" d="M168.12,152.73v0c-.08.19-.15.38-.24.56a7.9,7.9,0,0,1-.88-.21.78.78,0,0,1,.93-.44Z" transform="translate(-38.97 -11)"/><path class="cls-3" d="M167.87,153.32c-.12.31-.25.63-.4.95l-.2-.09a.73.73,0,0,1-.3-1.07h0A7.9,7.9,0,0,0,167.87,153.32Z" transform="translate(-38.97 -11)"/><path class="cls-14" d="M166.54,180.82c.13.45-9.35-2.54-16.78-5.17.2-.86-1.07-1.25-1.5-.54-1.37-.51-2.63-1-3.69-1.4h0a.85.85,0,0,0,.43-1.2l-.43-.69,10.07-15.87.38.33a.88.88,0,0,0,1.37-.32.45.45,0,0,0,.06.1c-2.68,4.21-5.35,8.45-8,12.66a24,24,0,0,0-2,3.18,7,7,0,0,1-.38.76c-.45.09-.41.63,0,0a1,1,0,0,1,.74.17c26.64,14.75,15.1-8.27,9.67-16.77l.66-1a.72.72,0,0,0,.08-.71c.33.5.65,1,.95,1.51-1.56-.1-.31,1.52.56,1.79h.41C162.71,164.66,164.28,173.24,166.54,180.82Z" transform="translate(-38.97 -11)"/><path class="cls-3" d="M159.81,149.35h1.43a5.63,5.63,0,0,0-.38,1.57A13.87,13.87,0,0,1,159.81,149.35Z" transform="translate(-38.97 -11)"/><path class="cls-3" d="M160.87,150.91c-.18,1.26-.33,2.69-1.42,3.1-1.42.54-4.1-1.5-5.71-2.63a9.17,9.17,0,0,1-.35-2.06.82.82,0,0,1,.4.12c1.3.74,4.27,3.07,5.24,2.11.33-.32.41-1.4.56-2.25l.23,0A13.87,13.87,0,0,0,160.87,150.91Z" transform="translate(-38.97 -11)"/><path class="cls-14" d="M156.4,156c5.43,8.49,17,31.51-9.67,16.77a1,1,0,0,0-.74-.17,7,7,0,0,0,.38-.76,24,24,0,0,1,2-3.18C151.05,164.48,153.72,160.25,156.4,156Z" transform="translate(-38.97 -11)"/><path class="cls-14" d="M159.06,157.56h-.41c-.87-.26-2.12-1.89-.56-1.79C158.43,156.37,158.75,157,159.06,157.56Z" transform="translate(-38.97 -11)"/><path class="cls-15" d="M157.18,123.1c.76-.74,1.93.43,1.17,1.17a19.81,19.81,0,0,1-16.88,5.61c-4-.52-9.24-2.06-11.45-5.78a.83.83,0,0,1,1.43-.83c1.94,3.26,6.75,4.5,10.25,4.94A18,18,0,0,0,157.18,123.1Z" transform="translate(-38.97 -11)"/><path class="cls-5" d="M158.31,390.6c0,.78,0,1.58,0,2.37-.55-.12-1.1-.23-1.67-.33,0-.71,0-1.39.06-2Z" transform="translate(-38.97 -11)"/><path class="cls-6" d="M158.26,393c-.12,6.7-.13,13.7-.23,20.24a2.37,2.37,0,0,0-1.56-.19.64.64,0,0,0-.58.24l-.07-.06c.18-5.75.58-14.26.77-20.57C157.16,392.74,157.71,392.85,158.26,393Z" transform="translate(-38.97 -11)"/><path class="cls-10" d="M157.41,413.73a3.72,3.72,0,0,1,.47,2c-.33-.1-.65-.2-1-.31,0-.26-.63-1.22-.69-1.86C156.65,413.89,156.94,414,157.41,413.73Z" transform="translate(-38.97 -11)"/><path class="cls-10" d="M158,413.21a3.18,3.18,0,0,1-.62.52,1.56,1.56,0,0,0-.49-.52,1,1,0,0,0-.45-.19A2.37,2.37,0,0,1,158,413.21Z" transform="translate(-38.97 -11)"/><path class="cls-14" d="M157.14,154.28a.72.72,0,0,1-.08.71l-.66,1a.45.45,0,0,1-.06-.1.67.67,0,0,0-.2-.85c-.2-.18-.4-.35-.57-.53a.65.65,0,0,1,.06-.25l.09-.14a.71.71,0,0,1,.11-.14,0,0,0,0,0,0,0,.88.88,0,0,1,.74-.18.52.52,0,0,1,.17.07l.06,0,.11.08a.72.72,0,0,1,.12.13.4.4,0,0,1,.09.13S157.14,154.27,157.14,154.28Z" transform="translate(-38.97 -11)"/><path class="cls-10" d="M156.93,413.21a1.56,1.56,0,0,1,.49.52c-.47.31-.76.17-1.18-.18a.44.44,0,0,1,.24-.53A1,1,0,0,1,156.93,413.21Z" transform="translate(-38.97 -11)"/><path class="cls-9" d="M157,154.12a.72.72,0,0,0-.12-.13A.47.47,0,0,1,157,154.12Z" transform="translate(-38.97 -11)"/><path class="cls-9" d="M156.75,153.88a.52.52,0,0,0-.17-.07A.52.52,0,0,1,156.75,153.88Z" transform="translate(-38.97 -11)"/><path class="cls-9" d="M156.59,153.81a.88.88,0,0,0-.74.18A.72.72,0,0,1,156.59,153.81Z" transform="translate(-38.97 -11)"/><path class="cls-10" d="M155.89,413.27a.64.64,0,0,1,.58-.24.44.44,0,0,0-.24.53Z" transform="translate(-38.97 -11)"/><path class="cls-14" d="M156.15,155.08a.67.67,0,0,1,.2.85c-.22-.34-.43-.66-.63-.95a.77.77,0,0,1-.14-.43C155.75,154.73,155.95,154.91,156.15,155.08Z" transform="translate(-38.97 -11)"/><path class="cls-3" d="M155.93,85.91a.71.71,0,0,1,.13.64l-.17-.67Z" transform="translate(-38.97 -11)"/><path class="cls-14" d="M155.72,155c.2.29.41.61.63.95a.88.88,0,0,1-1.37.32l-.38-.33c.3-.49.61-1,.9-1.43l.07.07A.77.77,0,0,0,155.72,155Z" transform="translate(-38.97 -11)"/><path class="cls-3" d="M155.89,85.87l.17.67a.93.93,0,0,1-1.57.2,2.07,2.07,0,0,0-1.59-.93c0-.49.08-1,.1-1.53A4,4,0,0,1,155.89,85.87Z" transform="translate(-38.97 -11)"/><path class="cls-9" d="M155.83,154a.71.71,0,0,0-.11.14l-.09.14A.75.75,0,0,1,155.83,154Z" transform="translate(-38.97 -11)"/><path class="cls-9" d="M155.51,154.49c0-.07.08-.13.12-.19a.65.65,0,0,0-.06.25Z" transform="translate(-38.97 -11)"/><path class="cls-6" d="M155.51,154.49c-.3.47-.61.95-.9,1.43-3.81-3.55-3.06-8.55-2.13-13.28.53-.19,1-.39,1.57-.62a.8.8,0,0,1,.11.63,26.86,26.86,0,0,0-.77,6.67.84.84,0,0,0-.44,1.54c.21.12.49.31.79.52A7.14,7.14,0,0,0,155.51,154.49Z" transform="translate(-38.97 -11)"/><path class="cls-3" d="M155.89,85.87A4,4,0,0,0,153,84.28c.68-10.58,1.5-29-4.75-38.81-.57-.9.86-1.73,1.43-.84C156.38,55.11,153.84,76,155.89,85.87Z" transform="translate(-38.97 -11)"/><path class="cls-6" d="M152.56,142.21c.15-.79,1.11-.72,1.48-.19-.52.23-1,.43-1.57.62C152.51,142.5,152.53,142.35,152.56,142.21Z" transform="translate(-38.97 -11)"/><path class="cls-6" d="M153.38,149.33a9.17,9.17,0,0,0,.35,2.06c-.31-.21-.58-.4-.79-.52A.84.84,0,0,1,153.38,149.33Z" transform="translate(-38.97 -11)"/><path class="cls-3" d="M150.37,84.59a7.43,7.43,0,0,1,2.64-.31c0,.53-.07,1-.1,1.53-1.56-.08-3.23,1.69-4,2.27-.15.12-.14.54-.35.64-.58.29-.73.52-1.47.51a24.94,24.94,0,0,1-6.32-1.16,8.4,8.4,0,0,1-1-.49c-1-.45-4.22-2.13-5.19-.85a.78.78,0,0,1-.5.31c0-.57-.06-1.19-.08-1.84,3-2.13,5.16-.34,6.64.94,1.92,1.69.89.29,2.29-.41,1.11-.56,2.07.79,3,1.11,1.54.55,1,0,2-.89A5.49,5.49,0,0,1,150.37,84.59Z" transform="translate(-38.97 -11)"/><path class="cls-6" d="M152.47,142.64c-.93,4.73-1.68,9.73,2.13,13.28l-10.07,15.87-10-15.93c3.64-3.46,3-8.29,2.13-12.9a31.12,31.12,0,0,0,6.9,1.29A22.29,22.29,0,0,0,152.47,142.64Z" transform="translate(-38.97 -11)"/><path class="cls-14" d="M148.26,175.1c.43-.71,1.7-.32,1.5.54Z" transform="translate(-38.97 -11)"/><path class="cls-14" d="M149.76,175.64a.32.32,0,0,1,0,.1c-1.32,4-.6,9.17-.67,13.38-.08,4-.14,8.06-.22,12.1q-.22,12.11-.44,24.21-.45,24.57-.88,49.12c-.55,0-1.1-.07-1.65-.12q.46-25.59.93-51.19.23-12.66.45-25.31c.09-4.4.2-8.8.24-13.21,0-3.2.66-9.41.66-9.41a.44.44,0,0,1,.11-.2Z" transform="translate(-38.97 -11)"/><path class="cls-12" d="M149.23,31.67a.56.56,0,0,1-.29,1l-2.42,0a.56.56,0,0,1,.21-1.07C147.57,31.6,148.4,31.62,149.23,31.67Z" transform="translate(-38.97 -11)"/><path class="cls-14" d="M148.26,175.1a.44.44,0,0,0-.11.2s-.62,6.21-.66,9.41c0,4.41-.15,8.81-.24,13.21q-.22,12.66-.45,25.31-.48,25.59-.93,51.19c-.62-.06-1.24-.12-1.86-.21a.76.76,0,0,0-.57-.25h-1.1a.75.75,0,0,0-.57.26c-.64.08-1.27.14-1.9.19q.41-25.3.87-50.58.23-12.76.45-25.53c.13-7.57,1.81-15.24.87-22.78,0-.3-.3-.51-.64-.64,1.14-.42,2.18-.82,3.09-1.18h.07C145.64,174.12,146.89,174.59,148.26,175.1Z" transform="translate(-38.97 -11)"/><path class="cls-9" d="M147.52,274.55c0,.13,0,.28,0,.41a.83.83,0,0,1-1.65,0c0-.18,0-.35,0-.53C146.42,274.48,147,274.51,147.52,274.55Z" transform="translate(-38.97 -11)"/><path class="cls-9" d="M146,172.63c-.41.63-.45.09,0,0Z" transform="translate(-38.97 -11)"/><path class="cls-16" d="M143.43,277.55a2.76,2.76,0,1,1-2.76,2.76A2.77,2.77,0,0,1,143.43,277.55Zm1.65,2.76a1.65,1.65,0,1,0-1.65,1.65A1.66,1.66,0,0,0,145.08,280.3Z" transform="translate(-38.97 -11)"/><path class="cls-16" d="M143.43,284.16a2.76,2.76,0,1,1-2.76,2.76A2.77,2.77,0,0,1,143.43,284.16Zm1.65,2.76a1.65,1.65,0,1,0-1.65,1.65A1.66,1.66,0,0,0,145.08,286.92Z" transform="translate(-38.97 -11)"/><path class="cls-14" d="M145,172.49a.85.85,0,0,1-.43,1.2.87.87,0,0,1-.44-1.2l.44-.69Z" transform="translate(-38.97 -11)"/><path class="cls-14" d="M144.53,171.79l-.44.69a.87.87,0,0,0,.44,1.2h0c-.9.36-2,.76-3.09,1.18-.84-.32-2.22-.11-2.12.64,0,0,0,.09,0,.13-7.36,2.64-16.72,5.61-16.59,5.16,2.13-7.2,3.63-15.31,6.88-22.19,1.58-.32,2-1.88,1.1-2.13a25.42,25.42,0,0,1,1.35-2.23.71.71,0,0,0,.07.72c.22.35.44.69.65,1-5.38,8.49-16.82,31.51,9.6,16.77a1.06,1.06,0,0,1,.74-.17c.4.62.44.1,0,0a7,7,0,0,1-.38-.76,25.12,25.12,0,0,0-2-3.18q-4-6.3-7.92-12.62a.87.87,0,0,0,1.28.18l.43-.39Z" transform="translate(-38.97 -11)"/><path class="cls-9" d="M144,274.21a.82.82,0,0,1-.35,1.38l-.22,0h0c-.08-.51-.13-1-.21-1.52C143.48,274.15,143.75,274.18,144,274.21Z" transform="translate(-38.97 -11)"/><path class="cls-14" d="M144,274.21c-.25,0-.52-.07-.78-.12,0,0,0-.07,0-.1l-.32.06-.34-.06s0,.08,0,.11l-.78.12a.75.75,0,0,1,.57-.26h1.1A.76.76,0,0,1,144,274.21Z" transform="translate(-38.97 -11)"/><path class="cls-16" d="M143.43,278.65a1.65,1.65,0,1,1-1.65,1.65A1.66,1.66,0,0,1,143.43,278.65Z" transform="translate(-38.97 -11)"/><path class="cls-16" d="M143.43,285.27a1.65,1.65,0,1,1-1.65,1.65A1.66,1.66,0,0,1,143.43,285.27Z" transform="translate(-38.97 -11)"/><path class="cls-14" d="M143.43,275.62h0a4.55,4.55,0,0,1-.54.08c-.26,0-.52-.07-.78-.11a.8.8,0,0,1-.35-1.37l.78-.12c-.08.51-.14,1-.21,1.51Z" transform="translate(-38.97 -11)"/><path class="cls-9" d="M143.22,274.09c.08.51.13,1,.21,1.52h-1.1c.07-.51.13-1,.21-1.51l.35-.06Z" transform="translate(-38.97 -11)"/><path class="cls-9" d="M143.1,172.63c.44.1.4.62,0,0Z" transform="translate(-38.97 -11)"/><path class="cls-14" d="M143.21,274s0,.07,0,.1l-.33,0Z" transform="translate(-38.97 -11)"/><path class="cls-14" d="M143.1,172.63a1.06,1.06,0,0,0-.74.17c-26.42,14.75-15-8.27-9.6-16.77,0,0,0,0,0,0q3.94,6.3,7.92,12.62a25.12,25.12,0,0,1,2,3.18A7,7,0,0,0,143.1,172.63Z" transform="translate(-38.97 -11)"/><path class="cls-14" d="M142.89,274l-.35.06s0-.08,0-.11Z" transform="translate(-38.97 -11)"/><path class="cls-9" d="M142.11,275.59c.26,0,.52.09.78.11-12.15,1.92-22.84-3.33-34.38-6.55-.77-.21-2-.45-3.51-.76-.07-.31-.14-.61-.22-.92a.72.72,0,0,0-.51-.55l.07-.35c1.73.35,3.39.64,4.61,1,9.82,2.74,19.1,7.15,29.24,6.92v.31a.83.83,0,0,0,1.65,0c0-.12,0-.25,0-.38.63,0,1.26-.11,1.9-.19A.8.8,0,0,0,142.11,275.59Z" transform="translate(-38.97 -11)"/><path class="cls-14" d="M142.05,175.52c.94,7.53-.74,15.21-.87,22.78q-.23,12.77-.45,25.53-.45,25.3-.87,50.58c-.56,0-1.11.07-1.67.07q.43-25.33.88-50.65.23-12.76.45-25.53c.13-7.52.69-15.15-.22-22.64l2.11-.77C141.75,175,142,175.22,142.05,175.52Z" transform="translate(-38.97 -11)"/><path class="cls-14" d="M139.29,175.52c-.1-.75,1.28-1,2.12-.64l-2.11.77S139.29,175.57,139.29,175.52Z" transform="translate(-38.97 -11)"/><path class="cls-9" d="M139.86,274.41c0,.12,0,.25,0,.38a.83.83,0,0,1-1.65,0v-.31C138.74,274.48,139.29,274.46,139.86,274.41Z" transform="translate(-38.97 -11)"/><path class="cls-3" d="M123.49,91.29s-1.89.71-2.71,1a.92.92,0,0,0-1.26-.76l-.1,0c-.43-1,0-2.36.14-3.6a187.32,187.32,0,0,1,9.29-39.61.73.73,0,0,1,.68,1c-3.81,10.49-6.23,21.56-8.24,32.53-.19,1-1.15,7.07-.61,8.93,0,.15,0,.31.25.47a.88.88,0,0,1-.25-.47c.07-.64,1.81-1.15,2.39-1.09,15.39,1.38,6-29.59,15.2-44,.57-.89,2-.07,1.42.84-6.31,9.88-6.08,28.49-5.7,38.64a10.83,10.83,0,0,0-.86.69c-.62.57.24,1.29.94,1.15.13,3.28.22,5.28,0,5.19A30.63,30.63,0,0,0,123.49,91.29Z" transform="translate(-38.97 -11)"/><path class="cls-7" d="M139.3,175.65c.92,7.49.35,15.12.22,22.64q-.23,12.77-.45,25.53-.45,25.33-.88,50.65c-10.14.23-19.42-4.18-29.24-6.92-1.22-.35-2.88-.64-4.61-1-3.11-.63-6.51-1.42-8.22-3-2.26-2.06,3.66-8.8,4.81-11.39,6.75-15.24,2.85-32.26,6-48a46.72,46.72,0,0,1,1.86-6.72c.36-1,1-17-1.59-.44q-.5,3.19-.93,6.4c-2.54-2.13-4.94-4.3-7.47-6.36a.74.74,0,0,0,.21-.33,34.3,34.3,0,0,0,1.24-7.27,9.4,9.4,0,0,0,.5-4.81c.14-1.56.26-3.11.34-4.67.19-3.51-.66-4.53,2.32-6.34,8.75-5.33,15.54-14,25.89-15a1.2,1.2,0,0,0,.29-.06c-3.25,6.88-4.75,15-6.88,22.19C122.58,181.27,131.95,178.29,139.3,175.65Z" transform="translate(-38.97 -11)"/><path class="cls-6" d="M136.65,143c.89,4.61,1.51,9.44-2.13,12.9l-.9-1.44a7.16,7.16,0,0,0,1.74-3.11l.77-.44a.84.84,0,0,0-.44-1.54,26.86,26.86,0,0,0-.77-6.67.66.66,0,0,1,0-.25C135.49,142.61,136.06,142.8,136.65,143Z" transform="translate(-38.97 -11)"/><path class="cls-6" d="M136.5,142.21c0,.24.1.5.14.75-.58-.17-1.16-.35-1.74-.56C135,141.55,136.32,141.26,136.5,142.21Z" transform="translate(-38.97 -11)"/><path class="cls-6" d="M135.69,149.33a.84.84,0,0,1,.44,1.54l-.77.44A9.11,9.11,0,0,0,135.69,149.33Z" transform="translate(-38.97 -11)"/><path class="cls-3" d="M134.91,142.65a26.86,26.86,0,0,1,.77,6.67.82.82,0,0,0-.4.12c-.78.44-3.43,2.6-4.31,2.25-.54-.22-1.31-2.59-1.73-3.18a.83.83,0,0,0-1.42,0,9.74,9.74,0,0,1-5.74,4.58.81.81,0,0,0-.95-.43,1.4,1.4,0,0,1-.2.07,7.56,7.56,0,0,1-4.43.32,10,10,0,0,0,1.1-1.36c.39-.47.22-1.51-.58-1.41a10.19,10.19,0,0,0-2.66.67.87.87,0,0,0-1-.55l-.21.06c.07-1.27-.11-2.58-1.3-3.12a.87.87,0,0,0-1,.13c-2.36,2.5-3.58,4.58-6.29,6.14a5.16,5.16,0,0,0,.2-.53c.24-.56-.18-1.52-.93-1.21a19.65,19.65,0,0,0-2.16,1,7.26,7.26,0,0,0-.23-2.79.83.83,0,0,0-1.38-.36l-4.57,3.53a9.14,9.14,0,0,1,.89-3.45.84.84,0,0,0-.58-1.41,3.44,3.44,0,0,0-.61.06c-3.66.51-3,4.93-8.71,4.43.78-.94,1.56-1.88,2.33-2.82.42-.52.19-1.46-.58-1.42l-.6,0-6.06.31c.55-.38,1.09-.77,1.64-1.2s-.06-1.65-.81-1.38A50.61,50.61,0,0,1,63,149.55a9.43,9.43,0,0,0,2.44-1.48c1.17-1.36,1.21-3.06,2.06-4.57.1-.17.2-.33.31-.49a.83.83,0,0,0-.94-1.21l-.56.19c-2.8.95-5.79,1.73-8.55.65,2.55-2.34-5.42-7.08-9.75-9.46,5.16-.85,8.82-4.67,11.63-9.31l.07,0a.87.87,0,0,0,.47,1.25l.21.06a30.28,30.28,0,0,0,18-.12,24.81,24.81,0,0,1-7.74,6,.83.83,0,0,0,0,1.42,16.35,16.35,0,0,0,2.88,1,39.05,39.05,0,0,1-6.49,1.11l-.41,0c-.74.06-1.22,1.16-.42,1.54l.39.18c3.43,1.49,6.64,1.21,10.06.75l-2.11,1.27a.83.83,0,0,0,0,1.42c7.46,3.51,19.08-7.06,23.59-11.81a47.41,47.41,0,0,0,7.41-10.33c2.69,7.43,8.38,13.13,14.93,17.45a65.45,65.45,0,0,0,14.34,7.26A.66.66,0,0,0,134.91,142.65Z" transform="translate(-38.97 -11)"/><path class="cls-3" d="M135.29,149.45a.82.82,0,0,1,.4-.12,9.11,9.11,0,0,1-.33,2l-4.08,2.36a.85.85,0,0,1-1-.13,9,9,0,0,1-1.79-3c.26-.36.52-.76.76-1.17h-1.42a7.48,7.48,0,0,1,.66,1.17,10.91,10.91,0,0,1-9,4.65.77.77,0,0,1-.68-.41,8,8,0,0,0,1-.1c0,.13.08.26.11.4.55-.26,1.1-.52,1.65-.79l.2-.09a.75.75,0,0,0,.31-1.08,9.74,9.74,0,0,0,5.74-4.58.83.83,0,0,1,1.42,0c.42.58,1.19,3,1.73,3.18C131.86,152,134.51,149.89,135.29,149.45Z" transform="translate(-38.97 -11)"/><path class="cls-14" d="M133.61,154.42l.9,1.44-.43.39a.87.87,0,0,1-1.28-.18.06.06,0,0,1,0-.06c.24-.38.46-.73.67-1a.71.71,0,0,0,.13-.53Z" transform="translate(-38.97 -11)"/><path class="cls-3" d="M134.08,87.05c-.69.14-1.56-.57-.94-1.15a10.83,10.83,0,0,1,.86-.69C134,85.86,134.05,86.48,134.08,87.05Z" transform="translate(-38.97 -11)"/><path class="cls-9" d="M133.54,154.3l.08.12,0,0A.36.36,0,0,0,133.54,154.3Z" transform="translate(-38.97 -11)"/><path class="cls-14" d="M133.58,154.45a.71.71,0,0,1-.13.53c-.21.31-.43.66-.67,1a.67.67,0,0,1,.14-.94A6,6,0,0,0,133.58,154.45Z" transform="translate(-38.97 -11)"/><path class="cls-14" d="M133.54,154.3a.36.36,0,0,1,0,.15,6,6,0,0,1-.66.63.67.67,0,0,0-.14.94h0c-.21-.35-.43-.69-.65-1a.71.71,0,0,1-.07-.72h0l.07-.1s0,0,0,0a.72.72,0,0,1,.12-.13.2.2,0,0,1,.08-.06.23.23,0,0,1,.11-.07.33.33,0,0,1,.14-.06.87.87,0,0,1,.73.18,0,0,0,0,0,0,0h0a.71.71,0,0,1,.11.14Z" transform="translate(-38.97 -11)"/><path class="cls-9" d="M133.54,154.3l-.09-.14a.71.71,0,0,0-.11-.14A.75.75,0,0,1,133.54,154.3Z" transform="translate(-38.97 -11)"/><path class="cls-10" d="M132.88,413.27c1.75,2,.17,15.49.1,19.27a420.91,420.91,0,0,1-3.41,44.86,156.24,156.24,0,0,1-6.73,30.87c-.55,1.63-1.11,3.3-1.72,5h0a.88.88,0,0,0-1.33-.84c6.64-17,8.47-35.7,10-53.67,1.21-14.06,1.36-28,1.17-42a6.44,6.44,0,0,1-.09-1c.33-.1.65-.2,1-.31,0-.26.63-1.22.69-1.86Z" transform="translate(-38.97 -11)"/><path class="cls-9" d="M132.59,153.81a.71.71,0,0,1,.73.18A.87.87,0,0,0,132.59,153.81Z" transform="translate(-38.97 -11)"/><path class="cls-6" d="M133,413.21l-.07.06a.64.64,0,0,0-.58-.24,2.37,2.37,0,0,0-1.56.19c-.11-6.67-.12-13.83-.23-20.64l.76-.31a7.5,7.5,0,0,1,.88-.3C132.32,398.33,132.76,407.25,133,413.21Z" transform="translate(-38.97 -11)"/><path class="cls-9" d="M132.77,156a.06.06,0,0,0,0,.06s0,0,0,0Z" transform="translate(-38.97 -11)"/><path class="cls-10" d="M132.88,413.27l-.34.29a.44.44,0,0,0-.24-.53A.64.64,0,0,1,132.88,413.27Z" transform="translate(-38.97 -11)"/><path class="cls-9" d="M132.59,153.81a.33.33,0,0,0-.14.06A.55.55,0,0,1,132.59,153.81Z" transform="translate(-38.97 -11)"/><path class="cls-10" d="M132.3,413a.44.44,0,0,1,.24.53c-.42.34-.71.49-1.18.18a1.68,1.68,0,0,1,.49-.52A1,1,0,0,1,132.3,413Z" transform="translate(-38.97 -11)"/><path class="cls-9" d="M132.26,154a.72.72,0,0,0-.12.13A.47.47,0,0,1,132.26,154Z" transform="translate(-38.97 -11)"/><path class="cls-5" d="M132.12,390.6c0,.44,0,.89,0,1.37a7.5,7.5,0,0,0-.88.3l-.76.31c0-.66,0-1.32,0-2a.71.71,0,0,1,.47-.73l.19-.06s0,0,0,0A.81.81,0,0,1,132.12,390.6Z" transform="translate(-38.97 -11)"/><path class="cls-10" d="M130.75,413.21a2.37,2.37,0,0,1,1.56-.19,1,1,0,0,0-.45.19,1.68,1.68,0,0,0-.49.52A3.18,3.18,0,0,1,130.75,413.21Z" transform="translate(-38.97 -11)"/><path class="cls-10" d="M131.36,413.73c.47.31.76.17,1.18-.18-.07.64-.72,1.6-.69,1.86-.31.11-.63.21-1,.31A3.8,3.8,0,0,1,131.36,413.73Z" transform="translate(-38.97 -11)"/><path class="cls-6" d="M131.13,389.82l-.19.06A.61.61,0,0,1,131.13,389.82Z" transform="translate(-38.97 -11)"/><path class="cls-10" d="M131,416.75c.19,14,0,27.89-1.17,42-1.56,18-3.39,36.7-10,53.67a.52.52,0,0,0-.1.07c-6.41,5.29-14.8,11.11-23.6,10.47-4.21-.31-9.53-3-8.33-7.82,1.9-3.87,3.44-8,5.1-11.89A275.42,275.42,0,0,0,104,473c5.1-17.12,7.27-38.69,8-56.53a6.28,6.28,0,0,1,1.2-.07c5.24,1.54,12.46.9,17.74-.67A6.44,6.44,0,0,0,131,416.75Z" transform="translate(-38.97 -11)"/><path class="cls-10" d="M130.75,413.21a3.18,3.18,0,0,0,.62.52,3.8,3.8,0,0,0-.47,2c-5.27,1.58-12.5,2.22-17.74.67a6.28,6.28,0,0,0-1.2.07c0-.35,0-.71,0-1s0-.52,0-.78C117.54,416,125.89,414.9,130.75,413.21Z" transform="translate(-38.97 -11)"/><path class="cls-14" d="M130.7,156.49c.88.25.47,1.81-1.1,2.13C129.94,157.91,130.3,157.19,130.7,156.49Z" transform="translate(-38.97 -11)"/><path class="cls-7" d="M128.87,157.08a2.42,2.42,0,0,1,1.83-.58c-.4.69-.76,1.41-1.1,2.13a1.2,1.2,0,0,1-.29.06c-10.35,1-17.14,9.64-25.89,15-3,1.81-2.13,2.83-2.32,6.34-.08,1.56-.2,3.11-.34,4.67a18.69,18.69,0,0,0-1.21-4.44c0-2,0-3.93,0-5.79a.82.82,0,0,1,.41-.71C109.84,168.12,118,160.82,128.87,157.08Z" transform="translate(-38.97 -11)"/><path class="cls-6" d="M130.51,392.57c.11,6.81.12,14,.23,20.64-4.85,1.69-13.2,2.82-18.74,1.42.07-4.93.15-10.91,0-15.76a.22.22,0,0,0,0-.09C118.26,397.46,124.34,395,130.51,392.57Z" transform="translate(-38.97 -11)"/><path class="cls-5" d="M130.47,390.6c0,.65,0,1.31,0,2-6.18,2.47-12.25,4.89-18.53,6.21-.1-1-1.14-.94-1.09.09V399a41.25,41.25,0,0,1-15.32.2c-23.61-4.29-42.06-24.4-56.28-42a.64.64,0,0,0,.68.07c.36-.15.73-.31,1.09-.49,10.22,12.71,20.55,25.77,35.52,32.87,14.67,7,28.34,10.79,43.62,5.33,6.2-2.22,4.81-3.67,10.74-5.05A.71.71,0,0,0,130.47,390.6Z" transform="translate(-38.97 -11)"/><path class="cls-3" d="M127.82,149.35h1.42c-.24.41-.5.81-.76,1.17A7.48,7.48,0,0,0,127.82,149.35Z" transform="translate(-38.97 -11)"/><path class="cls-3" d="M129,47.85l-.2.55a.71.71,0,0,0-.4,0Z" transform="translate(-38.97 -11)"/><path class="cls-3" d="M128.45,48.45l-.51.51A.77.77,0,0,1,128.45,48.45Z" transform="translate(-38.97 -11)"/><path class="cls-3" d="M122.09,153.1a.75.75,0,0,1-.31,1.08l-.2.09-.4-.95A8.32,8.32,0,0,0,122.09,153.1Z" transform="translate(-38.97 -11)"/><path class="cls-3" d="M121.58,154.27c-.55.28-1.1.53-1.65.79,0-.13-.07-.26-.11-.4A14.74,14.74,0,0,0,121.58,154.27Z" transform="translate(-38.97 -11)"/><path class="cls-3" d="M121.18,153.32l.4.95a14.74,14.74,0,0,1-1.76.4c-.1-.39-.2-.77-.31-1.15A10.4,10.4,0,0,0,121.18,153.32Z" transform="translate(-38.97 -11)"/><path class="cls-3" d="M121.14,152.67a.81.81,0,0,1,.95.43,8.32,8.32,0,0,1-.9.22l-.23-.56v0A1.4,1.4,0,0,0,121.14,152.67Z" transform="translate(-38.97 -11)"/><path class="cls-3" d="M121,152.76l.23.56a10.4,10.4,0,0,1-1.68.2c.11.38.21.76.31,1.15a8,8,0,0,1-1,.1.78.78,0,0,1,.28-1.14Z" transform="translate(-38.97 -11)"/><path class="cls-11" d="M119.78,512.38a.88.88,0,0,1,1.33.84.72.72,0,0,1-.26.4c-.75.62-1.53,1.25-2.35,1.88C119,514.46,119.38,513.43,119.78,512.38Z" transform="translate(-38.97 -11)"/><path class="cls-10" d="M121.12,513.22h0c-2.23,6.18-5,12.31-10.1,16.54-6.63,5.54-25.86,11.24-30.46-.13a8.1,8.1,0,0,1,.2-6.06c1.3-3.4,3.76-6.46,5.48-9.74l.14.08a6.59,6.59,0,0,0-.22,4.17c-.23.42-.49.83-.74,1.24-1.69,2.67-4.31,5.15-3.64,8.66,1.28,6.64,11.42,6.85,16.45,5.94A25.13,25.13,0,0,0,116.42,520q1.11-2.22,2.08-4.5c.82-.63,1.6-1.26,2.35-1.88A.72.72,0,0,0,121.12,513.22Z" transform="translate(-38.97 -11)"/><path class="cls-3" d="M120.94,152.73v0l-1.85.87a.78.78,0,0,0-.28,1.14,11.37,11.37,0,0,1-4.16-.55.85.85,0,0,1-.55-1.11l1-.4c.11.43.23.87.34,1.3a10.57,10.57,0,0,0,1-.95A7.56,7.56,0,0,0,120.94,152.73Z" transform="translate(-38.97 -11)"/><path class="cls-3" d="M120.77,92.32a.63.63,0,0,1-.43.67c-4.1,1.74-7.39,4.14-7.41-.14a5.76,5.76,0,0,0,1.14-.44.68.68,0,0,0,.42-.63h.21c0,1.74-.76,1.49,1.41,1.24a13.86,13.86,0,0,0,3.31-1.4,1.66,1.66,0,0,0,1,.9A1.56,1.56,0,0,1,120.77,92.32Z" transform="translate(-38.97 -11)"/><path class="cls-3" d="M120.69,90.86a.88.88,0,0,0,.25.47C120.73,91.17,120.65,91,120.69,90.86Z" transform="translate(-38.97 -11)"/><path class="cls-3" d="M120.77,92.32a1.56,1.56,0,0,0-.4.19,1.66,1.66,0,0,1-1-.9l.1,0A.92.92,0,0,1,120.77,92.32Z" transform="translate(-38.97 -11)"/><path class="cls-3" d="M118.2,61.89c.23-1,1.82-.61,1.6.43-1.29,5.88-2.46,11.78-3.45,17.7-.55,3.36-2,7.94-1.68,11.33,0,.15,0,.29,0,.42h-.21a.88.88,0,0,0-1.26-.79l-.18.08A290.34,290.34,0,0,1,118.2,61.89Z" transform="translate(-38.97 -11)"/><path class="cls-11" d="M119.68,512.44a.52.52,0,0,1,.1-.07c-.4,1-.83,2.08-1.28,3.11-7.06,5.48-16.39,11-25.38,8.64-3.21-.85-6.14-3.08-7-6,.56-1,1.09-2,1.59-3-1.2,4.83,4.11,7.51,8.33,7.82C104.88,523.55,113.27,517.74,119.68,512.44Z" transform="translate(-38.97 -11)"/><path class="cls-3" d="M117,150.29c.81-.1,1,.94.58,1.41a10,10,0,0,1-1.1,1.36,6.85,6.85,0,0,1-1.28-.4l1.8-.72c-.19-.46-.39-.94-.58-1.41a10.37,10.37,0,0,1-2.14,2.31.73.73,0,0,0-.19.26l-.52.21,0-.06a2.78,2.78,0,0,0,.83-2.05.45.45,0,0,0,0-.24A10.19,10.19,0,0,1,117,150.29Z" transform="translate(-38.97 -11)"/><path class="cls-11" d="M118.5,515.49q-1,2.28-2.08,4.5a25.13,25.13,0,0,1-18.19,13.93c-5,.9-15.17.69-16.45-5.94-.67-3.51,2-6,3.64-8.66.25-.41.51-.82.74-1.24.82,3,3.75,5.19,7,6C102.11,526.48,111.44,521,118.5,515.49Z" transform="translate(-38.97 -11)"/><path class="cls-3" d="M116.44,150.53c.2.47.4.95.58,1.41l-1.8.72-.12,0s0,.06,0,.09l-1,.4a.73.73,0,0,1,.19-.26A10.37,10.37,0,0,0,116.44,150.53Z" transform="translate(-38.97 -11)"/><path class="cls-3" d="M116.51,153.05a10.57,10.57,0,0,1-1,.95c-.11-.43-.23-.87-.34-1.3l.1,0A6.85,6.85,0,0,0,116.51,153.05Z" transform="translate(-38.97 -11)"/><path class="cls-3" d="M113.94,52.63c.82-.67,2,.5,1.17,1.17-5.36,4.38-8.69,10.18-11.78,16.27a116.86,116.86,0,0,0-5,10.89c-.56,1.46-1.09,2.92-1.54,4.42-.28.89-.52,1.8-.73,2.7-.06,1.17.13-.51,1.21-.86,1.49-.49,10.06,6.5,15.79,3.85l0,.29a10.92,10.92,0,0,0-.09,1.5,6,6,0,0,1-1.37.25V93a.83.83,0,0,0-1.65,0v0a14.8,14.8,0,0,1-3-.76c-1.51-.52-2.94-1.26-4.43-1.85a11.72,11.72,0,0,0-1.37-.36v0a.84.84,0,0,0-1.6-.32c-1.72-.38-3.63-.75-4-.78-.72,0,3-12.93,6.44-19.71C105.06,63,108.47,57.1,113.94,52.63Z" transform="translate(-38.97 -11)"/><path class="cls-3" d="M115.23,152.66l-.1,0s0-.06,0-.09Z" transform="translate(-38.97 -11)"/><path class="cls-3" d="M114.37,151a.45.45,0,0,1,0,.24,2.78,2.78,0,0,1-.83,2.05c-.34-.43-.67-.86-1-1.3l0,0h0l.39.17c0-.14,0-.3,0-.45A8,8,0,0,1,114.37,151Z" transform="translate(-38.97 -11)"/><path class="cls-3" d="M114.49,91.78a.68.68,0,0,1-.42.63,5.76,5.76,0,0,1-1.14.44,10.92,10.92,0,0,1,.09-1.5l0-.29.18-.08A.88.88,0,0,1,114.49,91.78Z" transform="translate(-38.97 -11)"/><path class="cls-3" d="M113.35,150.41a.87.87,0,0,1,1,.55,8,8,0,0,0-1.32.68c0-.36.09-.77.1-1.18Z" transform="translate(-38.97 -11)"/><path class="cls-3" d="M113.57,153.25l0,.06-.2.08a.72.72,0,0,1-1.15-.47.69.69,0,0,0,.51-.23c-.12-.2-.24-.4-.35-.6a.9.9,0,0,0-.15.83.81.81,0,0,1-.9-.82c.41-4-2.11.24-3.39,1.31a17.2,17.2,0,0,1-5.16,2.82.83.83,0,0,1-.94-1.21c.17-.22.33-.45.47-.68a11.32,11.32,0,0,1,1.93-.87l-.94-1.21a9,9,0,0,1-1,2.08,10.75,10.75,0,0,0-1.63,1.13l0,0a7.44,7.44,0,0,0,1-2.55,19.65,19.65,0,0,1,2.16-1c.75-.31,1.17.65.93,1.21a5.16,5.16,0,0,1-.2.53,13.58,13.58,0,0,1-2.19,1l.94,1.21a8.78,8.78,0,0,0,1.26-2.24c2.7-1.57,3.93-3.64,6.29-6.14a.87.87,0,0,1,1-.13c1.19.54,1.37,1.85,1.3,3.12a2.31,2.31,0,0,0-1.56,1l1,.42,0,0C112.9,152.39,113.23,152.82,113.57,153.25Z" transform="translate(-38.97 -11)"/><path class="cls-3" d="M113.14,150.46c0,.41-.06.82-.1,1.18a4.86,4.86,0,0,0-.43.29h0l-1-.42A2.31,2.31,0,0,1,113.14,150.46Z" transform="translate(-38.97 -11)"/><path class="cls-3" d="M113,151.64c0,.15,0,.31,0,.45l-.39-.17A4.86,4.86,0,0,1,113,151.64Z" transform="translate(-38.97 -11)"/><path class="cls-3" d="M112.4,152.08c.11.2.23.4.35.6a.69.69,0,0,1-.51.23A.9.9,0,0,1,112.4,152.08Z" transform="translate(-38.97 -11)"/><path class="cls-6" d="M112,398.87c.17,4.85.08,10.83,0,15.76a10.94,10.94,0,0,1-1.11-.32c0-5.55.12-11.86,0-15.32.36-.06.73-.13,1.09-.21A.22.22,0,0,1,112,398.87Z" transform="translate(-38.97 -11)"/><path class="cls-10" d="M112,414.63c0,.26,0,.53,0,.78a7,7,0,0,0-1.1-1.1A10.94,10.94,0,0,0,112,414.63Z" transform="translate(-38.97 -11)"/><path class="cls-10" d="M112,415.42c0,.34,0,.69,0,1a4.51,4.51,0,0,1-1.06.06A4.17,4.17,0,0,0,112,415.42Z" transform="translate(-38.97 -11)"/><path class="cls-5" d="M112,398.78c-.36.08-.73.15-1.09.21v-.12C110.85,397.85,111.88,397.81,112,398.78Z" transform="translate(-38.97 -11)"/><path class="cls-3" d="M111.56,93.11a52.09,52.09,0,0,1-4.9,22.51.85.85,0,0,0-1.5,0l-.26-.13a50.15,50.15,0,0,0,5-22.43A7.56,7.56,0,0,0,111.56,93.11Z" transform="translate(-38.97 -11)"/><path class="cls-3" d="M111.56,93v.1a7.56,7.56,0,0,1-1.65-.06v0A.83.83,0,0,1,111.56,93Z" transform="translate(-38.97 -11)"/><path class="cls-10" d="M110.89,416.52a4.51,4.51,0,0,0,1.06-.06c-.68,17.83-2.86,39.41-8,56.53A275.42,275.42,0,0,1,92.85,503.2c-1.65,3.85-3.2,8-5.1,11.89a5.07,5.07,0,0,1,.22-.74c.38-1-1.22-1.42-1.59-.44l-.14-.08c.19-.36.36-.72.53-1.08a308.6,308.6,0,0,0,14.91-37.83C107.12,457.37,110.11,434.67,110.89,416.52Z" transform="translate(-38.97 -11)"/><path class="cls-10" d="M112,415.42a4.17,4.17,0,0,1-1.1,1.1c0-2.21,0-1.71,0-2.21A7,7,0,0,1,112,415.42Z" transform="translate(-38.97 -11)"/><path class="cls-8" d="M109.91,93.05a50.15,50.15,0,0,1-5,22.43,45.85,45.85,0,0,1-4.38,7.22,47.2,47.2,0,0,1-12.77,11.76c-2.66,1.68-7.07,4.72-10.65,4.39l3.53-2.12.35-.21c.65-.39.43-1.63-.42-1.54l-.43.06c-3.2.39-6.25,1.16-9.35.78a40,40,0,0,0,7.21-2l.21-.08c.81-.3.78-1.69-.22-1.62l-.22,0a10,10,0,0,1-4.73-.49,26.43,26.43,0,0,0,8.22-7.47l.34-.49c.39-.56-.28-1.49-.94-1.21a5.81,5.81,0,0,1-.56.21,29,29,0,0,1-14.4,1.86c7.25-1.93,13.41-8.22,18.78-13,6.1-5.38,16.67-12.5,16.62-21.6a11.72,11.72,0,0,1,1.37.36c1.49.6,2.92,1.33,4.43,1.85A14.8,14.8,0,0,0,109.91,93.05Z" transform="translate(-38.97 -11)"/><path class="cls-9" d="M107.22,197c2.57-16.54,2-.56,1.59.44a46.72,46.72,0,0,0-1.86,6.72l-.15,0a.69.69,0,0,0-.28-.54l-.22-.19Q106.72,200.22,107.22,197Z" transform="translate(-38.97 -11)"/><path class="cls-5" d="M108.23,286.36a.65.65,0,0,1-.42.73c.1-.71-.75-1.26-1.26-.88-.08-.72-.17-1.43-.25-2.15a1.76,1.76,0,0,1,.14.14c.61.65,1.52-.06,1.39-.76h0C108,284.41,108.12,285.38,108.23,286.36Z" transform="translate(-38.97 -11)"/><path class="cls-5" d="M107.87,283.44h0a.93.93,0,0,0-.22-.41c-.56-.61-1.14-1.19-1.72-1.78A132.87,132.87,0,0,0,103.22,268l1.79.39A129.19,129.19,0,0,1,107.87,283.44Z" transform="translate(-38.97 -11)"/><path class="cls-5" d="M107.84,283.44c.13.71-.78,1.41-1.39.76a1.76,1.76,0,0,0-.14-.14c-.12-.94-.25-1.88-.41-2.8.58.58,1.16,1.17,1.72,1.78A.93.93,0,0,1,107.84,283.44Z" transform="translate(-38.97 -11)"/><path class="cls-5" d="M106.56,286.2c.51-.38,1.36.18,1.26.88a.92.92,0,0,1-1.24-.73C106.57,286.3,106.57,286.26,106.56,286.2Z" transform="translate(-38.97 -11)"/><path class="cls-5" d="M107.81,287.09a1.08,1.08,0,0,1-.07.25c-4.2,9.32-10.29,17.68-15.44,26.47a81.68,81.68,0,0,1-13.37,16.77c-10.88,10.71-23.84,20.06-37.88,26.15l-.73-.9a.65.65,0,0,0-.67-.26c14.63-6.18,28.16-16,39.28-27.32a95.57,95.57,0,0,0,14-18.89c3-5.07,6.34-10,9.31-15.07.76.33,1.64-.68.93-1.32l-.12-.1c1.17-2.06,2.25-4.17,3.23-6.34a.78.78,0,0,1,.24-.31c0,.06,0,.1,0,.15A.92.92,0,0,0,107.81,287.09Z" transform="translate(-38.97 -11)"/><path class="cls-9" d="M106.79,204.15l.15,0c-3.17,15.74.74,32.76-6,48-1.15,2.59-7.07,9.33-4.81,11.39,1.71,1.57,5.11,2.36,8.22,3l-.07.35a.84.84,0,0,0-1.08,1s0,.06,0,.09c-4.84-1.09-10.76-2.91-10.41-6.46.19-1.82,3.61-4.42,4.69-6.24a39.21,39.21,0,0,0,3.85-9.08A81.58,81.58,0,0,0,104,227.46c.38-7.42,1.08-15,2.06-22.49A.9.9,0,0,0,106.79,204.15Z" transform="translate(-38.97 -11)"/><path class="cls-9" d="M106.51,203.61a.69.69,0,0,1,.28.54.9.9,0,0,1-.71.82c.07-.51.13-1,.21-1.54Z" transform="translate(-38.97 -11)"/><path class="cls-17" d="M106.3,284.05c.09.72.18,1.43.25,2.15a.78.78,0,0,0-.24.31c-1,2.17-2.06,4.28-3.23,6.34C89.24,280.67,73.3,270,61.5,255.71a.8.8,0,0,0,1,.15,95.21,95.21,0,0,1,9.81-4.24.78.78,0,0,0,.14.24C82.24,264.08,95.63,272.66,106.3,284.05Z" transform="translate(-38.97 -11)"/><path class="cls-3" d="M105.17,115.62a.85.85,0,0,1,1.5,0c-.33.69-.67,1.39-1,2.06-.18-.5-.34-1-.5-1.5A.74.74,0,0,1,105.17,115.62Z" transform="translate(-38.97 -11)"/><path class="cls-9" d="M106.29,203.43c-.08.52-.14,1-.21,1.54a.82.82,0,0,1-.74-.19c-4-3.35-7.64-6.81-12-9.79l-.06,0,.17-.45a.79.79,0,0,0,0-.21,11.1,11.1,0,0,0,1.22-.33c.95.66,1.88,1.36,2.77,2.07a0,0,0,0,1,0,0,.71.71,0,0,0,.11,1l0,0a.81.81,0,0,0,1.17,0C101.35,199.12,103.76,201.3,106.29,203.43Z" transform="translate(-38.97 -11)"/><path class="cls-9" d="M105.34,204.78a.82.82,0,0,0,.74.19c-1,7.51-1.69,15.07-2.06,22.49a81.58,81.58,0,0,1-2.68,18.76,39.21,39.21,0,0,1-3.85,9.08c-1.08,1.82-4.5,4.42-4.69,6.24-.35,3.55,5.57,5.37,10.41,6.46a132.87,132.87,0,0,1,2.68,13.25C95.52,270.67,83,262.35,73.63,250.74c6.22-18.72,13.07-37.21,19.69-55.8l.06,0C97.7,198,101.33,201.43,105.34,204.78Z" transform="translate(-38.97 -11)"/><path class="cls-17" d="M105.9,281.25c.15.93.29,1.86.41,2.8-10.68-11.39-24.07-20-33.88-32.18a.78.78,0,0,1-.14-.24c.25-.11.52-.2.78-.3a.58.58,0,0,0,.25-.15.26.26,0,0,0,.11-.11.63.63,0,0,0,.21-.32C83,262.35,95.52,270.67,105.9,281.25Z" transform="translate(-38.97 -11)"/><path class="cls-3" d="M105.63,117.68h0A47.41,47.41,0,0,1,98.22,128c-4.51,4.75-16.14,15.32-23.59,11.81a.83.83,0,0,1,0-1.42l2.11-1.27c1.25-.17,2.51-.36,3.83-.51l.07.1-3.53,2.12a4.91,4.91,0,0,1-1.63-.44v1.42l1.63-1c3.58.33,8-2.71,10.65-4.39a47.2,47.2,0,0,0,12.77-11.76,45.85,45.85,0,0,0,4.38-7.22l.26.13a.74.74,0,0,0,0,.56C105.29,116.69,105.45,117.19,105.63,117.68Z" transform="translate(-38.97 -11)"/><path class="cls-9" d="M104.78,267.48c.08.31.15.61.22.92l-1.79-.39s0-.06,0-.09a.84.84,0,0,1,1.08-1A.72.72,0,0,1,104.78,267.48Z" transform="translate(-38.97 -11)"/><path class="cls-3" d="M103.33,152.25l.94,1.21a11.32,11.32,0,0,0-1.93.87A9,9,0,0,0,103.33,152.25Z" transform="translate(-38.97 -11)"/><path class="cls-3" d="M104.55,153.62a8.78,8.78,0,0,1-1.26,2.24l-.94-1.21A13.58,13.58,0,0,0,104.55,153.62Z" transform="translate(-38.97 -11)"/><path class="cls-5" d="M103.2,293c.72.64-.17,1.65-.93,1.32.28-.47.54-.95.81-1.42Z" transform="translate(-38.97 -11)"/><path class="cls-17" d="M103.08,292.85c-.26.47-.53.95-.81,1.42a.82.82,0,0,1-.24-.15c-14-12.3-30.06-23-41.91-37.5a.86.86,0,0,1,0-1.09h0a.91.91,0,0,0,1.18-.07l0,.06.15.19C73.3,270,89.24,280.67,103.08,292.85Z" transform="translate(-38.97 -11)"/><path class="cls-12" d="M101.76,50.32a1.32,1.32,0,0,1,.12-.19A1.66,1.66,0,0,0,101.76,50.32Z" transform="translate(-38.97 -11)"/><path class="cls-3" d="M101.43,150.1a7.26,7.26,0,0,1,.23,2.79,16.43,16.43,0,0,0-2.12,1.41c.39.38.76.75,1.14,1.14l0,0c-.11.08-.21.18-.32.26-.69.54-1.5-.46-1.14-1.13.12-.82.24-1.63.35-2.44l1.62-1.26-1.39-.36-.23,1.62q-2.18,1.7-4.38,3.39l-.09-.12a18.34,18.34,0,0,0,.35-2.16l4.57-3.53A.83.83,0,0,1,101.43,150.1Z" transform="translate(-38.97 -11)"/><path class="cls-3" d="M101.22,150.9l-1.62,1.26.23-1.62Z" transform="translate(-38.97 -11)"/><path class="cls-3" d="M101.09,90.07c0,9.1-10.52,16.21-16.62,21.6-5.37,4.74-11.54,11-18.78,13a30.42,30.42,0,0,1-5-1.07h0c8.95.35,16.4-7.54,22.63-13C88.88,105.58,99.49,98.21,99.43,90a.92.92,0,0,1,.06-.32Z" transform="translate(-38.97 -11)"/><path class="cls-3" d="M101.09,90v0l-1.6-.35A.84.84,0,0,1,101.09,90Z" transform="translate(-38.97 -11)"/><path class="cls-3" d="M101.66,152.89a7.44,7.44,0,0,1-1,2.55c-.38-.39-.75-.76-1.14-1.14A16.43,16.43,0,0,1,101.66,152.89Z" transform="translate(-38.97 -11)"/><path class="cls-6" d="M100.77,184.65a9.4,9.4,0,0,1-.5,4.81c.06-.57.11-1.14.18-1.69C100.57,186.74,100.68,185.69,100.77,184.65Z" transform="translate(-38.97 -11)"/><path class="cls-6" d="M100.77,184.65c-.09,1-.2,2.08-.32,3.12-.07.55-.12,1.11-.18,1.69-.09.22-.2.45-.31.67a6,6,0,0,1-1.42,1.81,53.46,53.46,0,0,0,.76-6c.14-1.91.22-3.83.25-5.71A18.69,18.69,0,0,1,100.77,184.65Z" transform="translate(-38.97 -11)"/><path class="cls-7" d="M100,190.14c.11-.22.22-.45.31-.67A34.3,34.3,0,0,1,99,196.73a.74.74,0,0,1-.21.33c-.35-.29-.71-.57-1.07-.85l1.07-.29,0,0a.87.87,0,0,0-1.26.13h0a34.47,34.47,0,0,0,1-4.08A6,6,0,0,0,100,190.14Z" transform="translate(-38.97 -11)"/><path class="cls-6" d="M99.55,180.21c0,1.89-.11,3.81-.25,5.71l-.31,0c.14-3.36-.92-7.93-3.36-9.77-1.62-1.22-.83-.67-2.69-.34a18.88,18.88,0,0,0-3.53,1.38c-2.64,1.07-5.24,2.21-7.84,3.35-2.91,1.28-5.12,4.18-6.54,7.6l-.34-.14a.89.89,0,0,0-.66-1.16c.42-1,.88-2.05,1.36-3,1.58-3.19,3.5-3.9,6.57-5.25,3.66-1.6,7.42-3.52,11.26-4.62,3.47-1,3.85.92,5.48,4.33C99,178.89,99.28,179.54,99.55,180.21Z" transform="translate(-38.97 -11)"/><path class="cls-6" d="M99,185.9l.31,0a53.46,53.46,0,0,1-.76,6,10.13,10.13,0,0,1-3.78,2l-.54-.39a.68.68,0,0,0-1,.11.87.87,0,0,0-1.36.38l-.2.55a21.4,21.4,0,0,1-3.5.18,8,8,0,0,1,2.08-1.67c3.88-.22,7.7-1.53,8.51-5.55A10.82,10.82,0,0,0,99,185.9Z" transform="translate(-38.97 -11)"/><path class="cls-6" d="M95.63,176.13c2.45,1.84,3.51,6.41,3.36,9.77a10.82,10.82,0,0,1-.19,1.67c-.82,4-4.63,5.33-8.51,5.55a3.57,3.57,0,0,1,.4-.22c1-.46.12-1.89-.84-1.42a8.27,8.27,0,0,0-2.34,1.67.69.69,0,0,0-.56.62,49,49,0,0,0-3.09,4.71c-1.39,2.1-3.22,4.94-5.42,6.33-3.26,2.07-4.15.45-5-3.17A24,24,0,0,1,75,188.12c1.42-3.42,3.63-6.32,6.54-7.6,2.6-1.15,5.21-2.28,7.84-3.35a18.88,18.88,0,0,1,3.53-1.38C94.8,175.45,94,174.9,95.63,176.13Z" transform="translate(-38.97 -11)"/><path class="cls-9" d="M98.83,195.93l-1.07.29c-.08-.07-.14-.13-.22-.19a.87.87,0,0,1,1.26-.13Z" transform="translate(-38.97 -11)"/><path class="cls-9" d="M97.76,196.21c.36.28.72.56,1.07.85a.81.81,0,0,1-1.17,0l0,0a.71.71,0,0,1-.11-1l-.07.23Z" transform="translate(-38.97 -11)"/><path class="cls-9" d="M97.53,196c.08.06.14.12.22.19l-.31.08.07-.23S97.53,196,97.53,196Z" transform="translate(-38.97 -11)"/><path class="cls-14" d="M97.53,196s0,0,0,0a0,0,0,0,0,0,0Z" transform="translate(-38.97 -11)"/><path class="cls-3" d="M95.79,148.4a.84.84,0,0,1,.58,1.41,9.14,9.14,0,0,0-.89,3.45l-1.74,1.36-.12,0c.31-1.21.38-2.57.66-3.81a2.94,2.94,0,0,1,1.51-.73c-.2-.46-.39-.94-.58-1.41l0-.19A3.44,3.44,0,0,1,95.79,148.4Z" transform="translate(-38.97 -11)"/><path class="cls-3" d="M95.21,148.64c.2.47.39.95.58,1.41a2.94,2.94,0,0,0-1.51.73A5.34,5.34,0,0,1,95.21,148.64Z" transform="translate(-38.97 -11)"/><path class="cls-3" d="M93.74,154.62l1.74-1.36a18.34,18.34,0,0,1-.35,2.16Z" transform="translate(-38.97 -11)"/><path class="cls-3" d="M95.13,155.43l.09.12c-.1.09-.21.17-.31.24-.6.47-1.63.07-1.38-.81a2.56,2.56,0,0,0,.09-.4l.12,0Z" transform="translate(-38.97 -11)"/><path class="cls-3" d="M95.19,148.45l0,.19a5.34,5.34,0,0,0-.93,2.14c-1.37,1-3,2.87-4.25,3.34a9.49,9.49,0,0,1-5.35.19c-.67-.12-.72-.95-.36-1.39.69-.85,1.39-1.69,2.07-2.54l1.82-.09c-.2-.46-.4-.94-.58-1.41v-.21l.6,0c.77,0,1,.9.58,1.42-.77.95-1.54,1.89-2.33,2.82a11,11,0,0,1-1.35-.18l.36,1.38,1-1.2C92.22,153.38,91.52,149,95.19,148.45Z" transform="translate(-38.97 -11)"/><path class="cls-6" d="M94.21,193.57l.54.39a11.1,11.1,0,0,1-1.22.33.62.62,0,0,0-.28-.61A.68.68,0,0,1,94.21,193.57Z" transform="translate(-38.97 -11)"/><path class="cls-6" d="M93.26,193.68a.62.62,0,0,1,.28.61,4.29,4.29,0,0,1-.52.1A.94.94,0,0,1,93.26,193.68Z" transform="translate(-38.97 -11)"/><path class="cls-18" d="M93.53,194.28a.79.79,0,0,1,0,.21l-.17.45a.75.75,0,0,1-.31-.56A4.29,4.29,0,0,0,93.53,194.28Z" transform="translate(-38.97 -11)"/><path class="cls-18" d="M93,194.38a.75.75,0,0,0,.31.56C86.7,213.53,79.85,232,73.63,250.74c0,0,0,0,0,0,.12-.56-.3-1.24-1-1l-.44.17C78.35,231.34,85.13,213,91.7,194.6,92.13,194.55,92.57,194.48,93,194.38Z" transform="translate(-38.97 -11)"/><path class="cls-6" d="M93.26,193.68a.94.94,0,0,0-.24.71c-.44.1-.88.17-1.31.22l.2-.55A.87.87,0,0,1,93.26,193.68Z" transform="translate(-38.97 -11)"/><path class="cls-6" d="M89.85,191.47c1-.46,1.8,1,.84,1.42a3.57,3.57,0,0,0-.4.22,24.75,24.75,0,0,1-2.56,0,.71.71,0,0,0-.22,0A8.27,8.27,0,0,1,89.85,191.47Z" transform="translate(-38.97 -11)"/><path class="cls-6" d="M87.73,193.11a24.75,24.75,0,0,0,2.56,0,8,8,0,0,0-2.08,1.67h-.47a.85.85,0,0,1-.78-1,7.47,7.47,0,0,1,.56-.62A.71.71,0,0,1,87.73,193.11Z" transform="translate(-38.97 -11)"/><path class="cls-18" d="M88.2,194.78a21.4,21.4,0,0,0,3.5-.18C85.13,213,78.35,231.34,72.18,249.89a101.59,101.59,0,0,0-10.39,4.47q2.27-6.1,4.46-12.22c4.25-11.79,8.39-23.6,12.83-35.32a44.06,44.06,0,0,0,4.07-4.59C84.95,200,86.21,196.94,88.2,194.78Z" transform="translate(-38.97 -11)"/><path class="cls-3" d="M87.63,148.88c.19.47.39.95.58,1.41l-1.82.09C86.81,149.89,87.22,149.38,87.63,148.88Z" transform="translate(-38.97 -11)"/><path class="cls-6" d="M87.73,194.77h.47c-2,2.16-3.25,5.23-5.06,7.46a44.06,44.06,0,0,1-4.07,4.59l.08-.2c.38-1-1.22-1.42-1.59-.44l-.81,2.13a.39.39,0,0,1-.15,0c-3.39.36-4.63-5.17-5-7.85A24.47,24.47,0,0,1,72.84,190c.57-.56,1.15-1.14,1.69-1.78a1.1,1.1,0,0,0,.15-.26l.34.14a24,24,0,0,0-1.54,13.51c.82,3.62,1.7,5.24,5,3.17,2.19-1.39,4-4.24,5.42-6.33a49,49,0,0,1,3.09-4.71A.85.85,0,0,0,87.73,194.77Z" transform="translate(-38.97 -11)"/><path class="cls-11" d="M86.38,513.91c.36-1,2-.55,1.59.44a5.07,5.07,0,0,0-.22.74c-.5,1-1,2-1.59,3A6.59,6.59,0,0,1,86.38,513.91Z" transform="translate(-38.97 -11)"/><path class="cls-3" d="M87.62,148.67v.21c-.41.5-.82,1-1.24,1.5q-3.87.22-7.72.4v-.09A27.31,27.31,0,0,0,81.56,149Z" transform="translate(-38.97 -11)"/><path class="cls-6" d="M87.51,193.14a7.47,7.47,0,0,0-.56.62A.69.69,0,0,1,87.51,193.14Z" transform="translate(-38.97 -11)"/><path class="cls-3" d="M86.47,152.89l-1,1.2-.36-1.38A11,11,0,0,0,86.47,152.89Z" transform="translate(-38.97 -11)"/><path class="cls-3" d="M82.4,146.4c.75-.28,1.46.88.81,1.38s-1.09.83-1.64,1.2l-2,.1c1.08-.32,2.16-.68,3.24-1.08L82,146.61a17.92,17.92,0,0,1-4.19,2.65.69.69,0,0,0-.35.4,51.47,51.47,0,0,1-16.83,1.42.84.84,0,0,1-.72-1.25,3,3,0,0,1,.32-.45l.4,0,.71,1.24A4.36,4.36,0,0,1,63,149.55,50.61,50.61,0,0,0,82.4,146.4Z" transform="translate(-38.97 -11)"/><path class="cls-3" d="M82,146.61l.81,1.39c-1.08.4-2.16.76-3.24,1.08l-1.33.07c0,.1.06.2.08.3l-.85.21a.69.69,0,0,1,.35-.4A17.92,17.92,0,0,0,82,146.61Z" transform="translate(-38.97 -11)"/><path class="cls-3" d="M80.65,122.56c.66-.28,1.32.65.94,1.21l-.34.49-.15-.11-.94-1.21-.07-.17A5.81,5.81,0,0,0,80.65,122.56Z" transform="translate(-38.97 -11)"/><path class="cls-3" d="M79.6,149.08l2-.1a27.31,27.31,0,0,1-2.89,1.71l-.33-1.25C78.76,149.33,79.18,149.22,79.6,149.08Z" transform="translate(-38.97 -11)"/><path class="cls-3" d="M81.09,124.14l.15.11A26.43,26.43,0,0,1,73,131.72a11.21,11.21,0,0,1-1.47-.62v1.42c.51-.25,1-.53,1.47-.81a10,10,0,0,0,4.73.49,37.77,37.77,0,0,1-4.16,1.32,16.35,16.35,0,0,1-2.88-1,.83.83,0,0,1,0-1.42,24.81,24.81,0,0,0,7.74-6C79.34,124.82,80.22,124.5,81.09,124.14Z" transform="translate(-38.97 -11)"/><path class="cls-3" d="M80.56,135c.85-.09,1.07,1.16.42,1.54l-.35.21-.07-.1c-.14-.51-.28-1-.42-1.53V135Z" transform="translate(-38.97 -11)"/><path class="cls-3" d="M80.15,122.93l.94,1.21c-.87.35-1.75.67-2.63.95C79,124.42,79.61,123.69,80.15,122.93Z" transform="translate(-38.97 -11)"/><path class="cls-3" d="M80.14,135.11c.14.51.28,1,.42,1.53-1.31.14-2.58.34-3.83.51Z" transform="translate(-38.97 -11)"/><path class="cls-3" d="M80.09,122.77l.07.17c-.54.76-1.1,1.49-1.69,2.16a30.28,30.28,0,0,1-18,.12v0a16.59,16.59,0,0,0,5.24-.56A29,29,0,0,0,80.09,122.77Z" transform="translate(-38.97 -11)"/><path class="cls-3" d="M80.13,135v.07l-3.41,2c-3.42.46-6.63.74-10.06-.75l0-.07c1.39-.11,2.75-.28,4.07-.51C73.88,136.2,76.93,135.43,80.13,135Z" transform="translate(-38.97 -11)"/><path class="cls-3" d="M78.27,149.15l1.33-.07c-.42.13-.84.24-1.26.36C78.32,149.35,78.29,149.25,78.27,149.15Z" transform="translate(-38.97 -11)"/><path class="cls-6" d="M77.56,206.18c.36-1,2-.55,1.59.44l-.08.2a5.69,5.69,0,0,1-2.32,1.49Z" transform="translate(-38.97 -11)"/><path class="cls-3" d="M78.67,150.69v.09l-.41,0a.84.84,0,0,1-.77-1.15l.85-.21Z" transform="translate(-38.97 -11)"/><path class="cls-3" d="M78,132.17c1-.07,1,1.32.22,1.62l-.21.08v0c-.08-.54-.14-1.08-.22-1.62Z" transform="translate(-38.97 -11)"/><path class="cls-3" d="M78,133.83v0a40,40,0,0,1-7.21,2,11.19,11.19,0,0,1-3.65-1v-.14a39.05,39.05,0,0,0,6.49-1.11A14,14,0,0,0,78,133.83Z" transform="translate(-38.97 -11)"/><path class="cls-3" d="M77.76,132.21c.08.54.14,1.08.22,1.62a14,14,0,0,1-4.38-.3A37.77,37.77,0,0,0,77.76,132.21Z" transform="translate(-38.97 -11)"/><path class="cls-3" d="M77.1,138.86l-1.63,1v-1.42A4.91,4.91,0,0,0,77.1,138.86Z" transform="translate(-38.97 -11)"/><path class="cls-18" d="M76.75,208.31a5.69,5.69,0,0,0,2.32-1.49c-4.43,11.71-8.58,23.53-12.83,35.32l-.41-.14a.85.85,0,0,0-.13-.88l-.58-.73c2.89-8,5.75-16.08,8.69-24.1l.75-.12c.94-.19.68-1.48-.12-1.61Q75.58,211.43,76.75,208.31Z" transform="translate(-38.97 -11)"/><path class="cls-14" d="M76.6,208.35a.39.39,0,0,0,.15,0q-1.17,3.11-2.32,6.24a1,1,0,0,0-.31,0c-9.21,1.79-8.7-12.33-7-17.49a7.34,7.34,0,0,1,.47-1.11C69,193.4,71,191.83,72.84,190a24.47,24.47,0,0,0-1.22,10.48C72,203.17,73.21,208.71,76.6,208.35Z" transform="translate(-38.97 -11)"/><path class="cls-6" d="M74,186.82a.89.89,0,0,1,.66,1.16,1.1,1.1,0,0,1-.15.26c-.54.64-1.11,1.21-1.69,1.78C73.19,188.92,73.58,187.85,74,186.82Z" transform="translate(-38.97 -11)"/><path class="cls-18" d="M74.44,214.56c.81.13,1.06,1.42.12,1.61l-.75.12C74,215.7,74.22,215.13,74.44,214.56Z" transform="translate(-38.97 -11)"/><path class="cls-14" d="M74.44,214.56c-.22.57-.43,1.15-.63,1.73-6.7.85-8.67-5.24-9.33-11.11a21.74,21.74,0,0,1-.13-3.45c.74-1.56,1.53-3.08,2.36-4.56a1.7,1.7,0,0,0,.09-.21l.35.11c-1.72,5.16-2.23,19.28,7,17.49A1,1,0,0,1,74.44,214.56Z" transform="translate(-38.97 -11)"/><path class="cls-14" d="M73.36,187.07a.68.68,0,0,1,.66-.25c-.44,1-.83,2.11-1.18,3.2C71,191.83,69,193.4,67.62,196a7.34,7.34,0,0,0-.47,1.11L66.8,197a.87.87,0,0,0-1-1c.24-.51.52-1,.83-1.53C68.46,191.3,71.09,189.73,73.36,187.07Z" transform="translate(-38.97 -11)"/><path class="cls-14" d="M73.6,250.71s0,0,0,0a.63.63,0,0,1-.21.32A.63.63,0,0,0,73.6,250.71Z" transform="translate(-38.97 -11)"/><path class="cls-18" d="M72.62,249.73c.68-.25,1.1.42,1,1h0c-.47-.58-1.19-.18-1.33.41a.68.68,0,0,1-.21-.81l.13-.41Z" transform="translate(-38.97 -11)"/><path class="cls-18" d="M73.59,250.7h0a.63.63,0,0,1-.18.35.26.26,0,0,1-.11.11.89.89,0,0,1-1.06-.07C72.4,250.52,73.12,250.11,73.59,250.7Z" transform="translate(-38.97 -11)"/><path class="cls-18" d="M73.31,251.17a.58.58,0,0,1-.25.15c-.26.1-.53.19-.78.3a.83.83,0,0,1,0-.52A.89.89,0,0,0,73.31,251.17Z" transform="translate(-38.97 -11)"/><path class="cls-7" d="M64.48,205.18c.66,5.87,2.64,12,9.33,11.11-2.94,8-5.8,16.06-8.69,24.1-9.23-11.71-6.73-26.16-.77-38.66A21.74,21.74,0,0,0,64.48,205.18Z" transform="translate(-38.97 -11)"/><path class="cls-3" d="M73,131.72c-.47.28-1,.55-1.47.81V131.1A11.21,11.21,0,0,0,73,131.72Z" transform="translate(-38.97 -11)"/><path class="cls-18" d="M72.25,251.11a.83.83,0,0,0,0,.52,95.21,95.21,0,0,0-9.81,4.24.8.8,0,0,1-1-.15l-.15-.19,0-.07a.73.73,0,0,0,.19-.3c.1-.26.2-.53.29-.79a101.59,101.59,0,0,1,10.39-4.47l-.13.41A.68.68,0,0,0,72.25,251.11Z" transform="translate(-38.97 -11)"/><path class="cls-3" d="M70.78,135.83c-1.32.23-2.68.4-4.07.51.14-.51.28-1,.42-1.54A11.19,11.19,0,0,0,70.78,135.83Z" transform="translate(-38.97 -11)"/><path class="cls-3" d="M66.92,141.8a.83.83,0,0,1,.94,1.21c-.11.15-.21.32-.31.49l-.19-.11-.94-1.21-.07-.19Z" transform="translate(-38.97 -11)"/><path class="cls-3" d="M67.36,143.39l.19.11c-.85,1.51-.89,3.21-2.06,4.57A9.43,9.43,0,0,1,63,149.55c-.79,0-1.58-.07-2.38-.12l-.4,0c.82-.94,2-1,3.1-1.93A7.82,7.82,0,0,0,65.48,144C66.11,143.82,66.73,143.61,67.36,143.39Z" transform="translate(-38.97 -11)"/><path class="cls-3" d="M66.42,142.18l.94,1.21c-.63.22-1.25.43-1.88.62A8.72,8.72,0,0,1,66.42,142.18Z" transform="translate(-38.97 -11)"/><path class="cls-3" d="M67.11,134.65v.14c-.14.52-.28,1-.42,1.54l0,.07-.39-.18c-.81-.39-.32-1.49.42-1.54Z" transform="translate(-38.97 -11)"/><path class="cls-14" d="M65.77,195.95a.87.87,0,0,1,1,1,1.7,1.7,0,0,1-.09.21c-.83,1.48-1.62,3-2.36,4.56A14.91,14.91,0,0,1,65.77,195.95Z" transform="translate(-38.97 -11)"/><path class="cls-3" d="M66.35,142l.07.19a8.72,8.72,0,0,0-.94,1.83c-3.21,1-6.38,1.4-9.42-.34l.14-.23a4.05,4.05,0,0,0,1.6-.79C60.56,143.72,63.55,142.94,66.35,142Z" transform="translate(-38.97 -11)"/><path class="cls-18" d="M65.84,242l.41.14q-2.2,6.12-4.46,12.22l-.15.08a.71.71,0,0,0-.32,1h0a.71.71,0,0,0-1.17.08h0a.68.68,0,0,1-.2-.82c1.54-4.16,3.06-8.34,4.56-12.51l.07.08A.75.75,0,0,0,65.84,242Z" transform="translate(-38.97 -11)"/><path class="cls-18" d="M65.7,241.11a.85.85,0,0,1,.13.88.75.75,0,0,1-1.3.29l-.07-.08c.22-.61.44-1.21.65-1.82Z" transform="translate(-38.97 -11)"/><path class="cls-7" d="M65.28,196.33a.75.75,0,0,1,.49-.39,14.91,14.91,0,0,0-1.42,5.78c-6,12.5-8.46,26.95.77,38.66-.21.61-.43,1.21-.65,1.82C52.94,228.35,57.22,210.71,65.28,196.33Z" transform="translate(-38.97 -11)"/><path class="cls-3" d="M60.66,149.42c.81.06,1.59.1,2.38.12a4.36,4.36,0,0,0-1.68,1.11Z" transform="translate(-38.97 -11)"/><path class="cls-3" d="M65.68,124.63a16.59,16.59,0,0,1-5.24.56c.07-.54.14-1.09.22-1.63A30.42,30.42,0,0,0,65.68,124.63Z" transform="translate(-38.97 -11)"/><path class="cls-18" d="M61.79,254.36c-.09.26-.19.53-.29.79a.73.73,0,0,1-.19.3.71.71,0,0,1,.32-1Z" transform="translate(-38.97 -11)"/><path class="cls-9" d="M61.29,255.45h0a.91.91,0,0,1-1.18.07A.71.71,0,0,1,61.29,255.45Z" transform="translate(-38.97 -11)"/><path class="cls-3" d="M60.66,123.55h0c-.08.54-.15,1.09-.22,1.63v0l-.21-.06a.87.87,0,0,1-.47-1.25.7.7,0,0,1,.69-.38Z" transform="translate(-38.97 -11)"/><path class="cls-3" d="M48.06,133.18c4.33,2.38,12.3,7.13,9.75,9.46a7.32,7.32,0,0,1-1.4-.72l-.2,1.51-.14.23-.5-.31a.84.84,0,0,1,.2-1.51c2.18-.64-5-5-5.21-5.16-1.84-1.09-3.68-2.16-5.54-3.24l.06-.1A13.13,13.13,0,0,0,48.06,133.18Z" transform="translate(-38.97 -11)"/><path class="cls-3" d="M56.41,141.92a7.32,7.32,0,0,0,1.4.72,4.05,4.05,0,0,1-1.6.79Z" transform="translate(-38.97 -11)"/><path class="cls-3" d="M48.06,133.18a13.13,13.13,0,0,1-3,.17l.42-1.54C45.75,132,46.73,132.45,48.06,133.18Z" transform="translate(-38.97 -11)"/><path class="cls-3" d="M45.5,131.7v.1l-.42,1.54-.06.1-.36-.21a.84.84,0,0,1,.42-1.54Z" transform="translate(-38.97 -11)"/><path class="cls-5" d="M41.06,356.73c-.36.18-.73.33-1.09.49a.64.64,0,0,1-.68-.07s0,0,0,0l-.1-.13a.92.92,0,0,1-.09-.13l-.07-.13a1.17,1.17,0,0,1,0-.52.7.7,0,0,1,.09-.21s0,0,0-.06a.72.72,0,0,1,.14-.18,1.41,1.41,0,0,1,.25-.15l.11-.06s0,0,0,0a.65.65,0,0,1,.67.26Z" transform="translate(-38.97 -11)"/><path class="cls-4" d="M39.64,355.56l-.11.06a1.41,1.41,0,0,0-.25.15A.81.81,0,0,1,39.64,355.56Z" transform="translate(-38.97 -11)"/><path class="cls-4" d="M39.28,355.77a.72.72,0,0,0-.14.18A.72.72,0,0,1,39.28,355.77Z" transform="translate(-38.97 -11)"/><path class="cls-4" d="M39.17,357l.1.13a.51.51,0,0,1-.19-.26A.92.92,0,0,0,39.17,357Z" transform="translate(-38.97 -11)"/><path class="cls-4" d="M39.1,356a.7.7,0,0,0-.09.21A.5.5,0,0,1,39.1,356Z" transform="translate(-38.97 -11)"/><path class="cls-4" d="M39,356.21a1.17,1.17,0,0,0,0,.52A.83.83,0,0,1,39,356.21Z" transform="translate(-38.97 -11)"/></svg>