<svg xmlns="http://www.w3.org/2000/svg" viewBox="0 0 490 214"><defs><style>.cls-1{fill:#fff;}</style></defs><title>アセット 3</title><g id="レイヤー_2" data-name="レイヤー 2"><g id="header"><path class="cls-1" d="M124.5,182.5c-68.37,0-124-40.82-124-91S56.13.5,124.5.5s124,40.82,124,91S192.87,182.5,124.5,182.5Z"/><path class="cls-1" d="M124.5,1C192.6,1,248,41.6,248,91.5S192.6,182,124.5,182,1,141.4,1,91.5,56.4,1,124.5,1m0-1C55.74,0,0,41,0,91.5S55.74,183,124.5,183,249,142,249,91.5,193.26,0,124.5,0Z"/><path class="cls-1" d="M288,213.5C223.76,213.5,171.5,168,171.5,112S223.76,10.5,288,10.5,404.5,56,404.5,112,352.24,213.5,288,213.5Z"/><path class="cls-1" d="M288,11c64,0,116,45.31,116,101S352,213,288,213,172,167.69,172,112,224,11,288,11m0-1c-64.62,0-117,45.67-117,102s52.38,102,117,102,117-45.67,117-102S352.62,10,288,10Z"/><path class="cls-1" d="M429.5,165.5c-33.08,0-60-23.55-60-52.5s26.92-52.5,60-52.5,60,23.55,60,52.5S462.58,165.5,429.5,165.5Z"/><path class="cls-1" d="M429.5,61c32.81,0,59.5,23.33,59.5,52s-26.69,52-59.5,52S370,141.67,370,113s26.69-52,59.5-52m0-1C396.09,60,369,83.73,369,113s27.09,53,60.5,53S490,142.27,490,113s-27.09-53-60.5-53Z"/></g></g></svg>